<svg fill="none" height="44" role="img" viewBox="0 0 198 44" width="198" xmlns="http://www.w3.org/2000/svg"><title>Blancpain Logo</title><path d="M10.5356 39.5804C10.5356 41.1321 11.241 41.8375 13.216 41.8375C17.0249 41.8375 18.8588 40.2857 18.8588 37.7464C18.8588 35.2071 17.7303 32.8089 13.216 32.8089H10.5356V39.5804ZM10.5356 31.3982H11.8053C15.6142 31.3982 17.4481 30.1286 17.4481 27.5893C17.4481 24.9089 15.7553 23.3571 13.0749 23.3571C11.5231 23.3571 10.5356 23.9214 10.5356 25.4732V31.3982ZM4.46955 25.6143C4.46955 24.0625 3.62313 22.9339 0.942768 22.9339V21.9464H14.4856C20.2696 21.9464 23.9374 23.9214 23.9374 27.3071C23.9374 30.2696 21.2571 31.6804 17.8713 31.9625C21.6803 32.3857 25.3481 33.7964 25.3481 37.3232C25.3481 40.0036 23.091 43.3893 15.7553 43.3893H0.801697V42.4018C3.48205 42.4018 4.32848 41.5554 4.32848 40.0036V25.6143H4.46955Z" fill="white"></path><path d="M27.1821 43.3893V42.4018C29.4392 42.4018 30.1446 41.6964 30.1446 40.4268V29.2821C30.1446 28.0125 29.4392 27.3071 27.1821 27.3071V26.3196H38.1856V27.3071C35.9285 27.3071 35.2231 28.0125 35.2231 29.2821V40.1446C35.2231 41.2732 35.7874 41.9786 37.3392 41.9786C38.7499 41.9786 40.1606 42.1196 41.2892 41.2732C42.6999 40.2857 43.5464 38.4518 43.9696 36.9H45.2392L44.2517 43.3893H27.1821Z" fill="white"></path><path d="M70.7731 26.3196H78.2499L88.1249 36.3357V29.1411C88.1249 27.8714 87.5606 27.1661 85.1624 27.1661V26.1786H92.7803V27.1661C90.5231 27.1661 90.0999 27.7304 90.0999 29.1411V43.2482H88.4071L75.7106 30.1286H75.5696V40.2857C75.5696 41.5554 76.1338 42.2607 78.9553 42.2607V43.2482H70.7731V42.2607C73.0303 42.2607 73.5946 41.5554 73.5946 40.2857V29.1411C73.5946 27.8714 73.0303 27.1661 70.7731 27.1661V26.3196Z" fill="white"></path><path d="M123.393 34.3607H124.521C127.484 34.3607 128.754 33.2321 128.754 30.975C128.754 29 127.625 27.5893 125.368 27.5893C124.239 27.5893 123.393 28.0125 123.393 29.2821V34.3607ZM115.634 43.3893V42.4018C117.891 42.4018 118.596 41.6964 118.596 40.4268V29.2821C118.596 28.0125 117.891 27.3071 115.634 27.3071V26.3196H126.637C130.87 26.3196 133.973 27.8714 133.973 30.8339C134.114 33.9375 131.011 35.7714 126.92 35.6304H123.393V40.2857C123.393 41.5554 124.239 42.2607 126.637 42.2607V43.2482H115.634V43.3893Z" fill="white"></path><path d="M155.98 43.3893V42.4018C158.237 42.4018 158.943 41.6964 158.943 40.4268V29.2821C158.943 28.0125 158.237 27.3071 155.98 27.3071V26.3196H166.984V27.3071C164.727 27.3071 164.021 28.0125 164.021 29.2821V40.4268C164.021 41.6964 164.727 42.4018 166.984 42.4018V43.3893H155.98Z" fill="white"></path><path d="M169.241 21.9464H178.693L191.107 34.6429H191.248V25.6143C191.248 23.9214 190.402 22.9339 187.439 22.9339V21.9464H197.032V22.9339C194.352 22.9339 193.787 23.9214 193.787 25.6143V43.3893H191.671L175.589 26.8839H175.448V40.0036C175.448 41.5554 176.154 42.4018 179.68 42.4018V43.3893H169.241V42.4018C172.062 42.4018 172.768 41.5554 172.768 40.0036V25.6143C172.768 24.0625 172.204 22.9339 169.241 22.9339V21.9464Z" fill="white"></path><path d="M141.45 31.5393L144.13 36.4768H138.911L141.45 31.5393ZM151.466 40.7089L143.707 26.0375H142.014L135.243 39.2982C134.255 41.4143 133.691 42.1196 131.434 42.4018V43.3893H139.898V42.4018H138.487C137.359 42.4018 136.936 41.6964 136.936 41.1321C136.936 40.5678 137.077 40.1446 137.218 39.7214L138.064 38.0286H144.695L146.105 40.7089C146.246 40.9911 146.387 41.1321 146.387 41.5553C146.387 42.1196 145.964 42.5428 144.412 42.5428H143.425V43.5303H154.287V42.5428C152.736 42.2607 152.171 41.8375 151.466 40.7089Z" fill="white"></path><path d="M113.236 38.1696H112.812C111.402 40.2857 108.439 41.9786 105.336 41.9786C101.245 41.9786 99.1285 39.2982 99.1285 34.925C99.1285 30.6928 100.821 27.3071 104.489 27.3071C108.016 27.3071 109.709 29 111.261 32.5268H112.53V26.4607H111.261L110.132 27.4482C108.439 26.7428 106.464 26.0375 104.207 26.0375C97.9999 26.0375 93.6267 30.1286 93.6267 34.7839C93.6267 39.5803 97.0124 43.6714 104.63 43.6714C108.298 43.6714 111.261 42.5428 113.095 40.4268V38.1696H113.236Z" fill="white"></path><path d="M56.1017 31.5393L58.7821 36.4768H53.7035L56.1017 31.5393ZM66.1178 40.7089L58.3589 26.0375H56.666L50.0357 39.1571C49.0482 41.2732 48.4839 41.9786 46.2267 42.2607V43.2482H54.691V42.2607H53.2803C52.1517 42.2607 51.7285 41.5553 51.7285 40.9911C51.7285 40.4268 51.8696 40.0036 52.0107 39.5803L52.8571 37.8875H59.4875L60.8982 40.5678C61.0392 40.85 61.1803 40.9911 61.1803 41.4143C61.1803 41.9786 60.7571 42.4018 59.2053 42.4018H58.2178V43.3893H69.0803V42.4018C67.3875 42.2607 66.8232 41.8375 66.1178 40.7089Z" fill="white"></path><path d="M100.257 11.0839H101.245C103.361 11.0839 104.348 10.2375 104.348 8.96786C104.348 7.69821 103.643 6.2875 101.245 6.2875H100.257V11.0839ZM100.257 5.3H100.962C103.078 5.3 103.502 4.45357 103.502 3.18393C103.502 1.91428 102.514 1.06786 101.103 1.06786H100.257V5.3ZM96.8713 0.221428H101.809C104.912 0.221428 107.028 1.06786 107.028 3.18393C107.028 5.15893 105.195 5.72321 104.63 5.86428C105.477 5.86428 107.875 6.42857 107.875 8.68571C107.875 10.3786 106.605 11.9304 102.514 11.9304H96.8713V0.221428Z" fill="white"></path><path d="M90.9464 0.221428V1.06786H92.4982V10.9429H90.6642L90.3821 11.9304H95.1785V0.221428H90.9464Z" fill="white"></path><path d="M87.2785 13.7643L87.8428 14.6107V18.8429H85.8678V14.8929H84.5982L84.316 13.7643H87.2785Z" fill="white"></path><path d="M88.8303 13.7643L89.1125 14.8929H93.4857L90.3821 18.8429H92.6392L95.8839 14.8929V13.7643H88.8303Z" fill="white"></path><path d="M103.079 16.1625C103.502 16.1625 104.489 16.4446 104.489 17.4321C104.489 18.1375 104.066 18.8429 102.232 18.8429H96.5892L96.8714 17.7143H101.668C102.091 17.7143 102.091 17.2911 102.091 17.15C102.091 17.0089 101.95 16.5857 101.668 16.5857H99.6928V15.8804H101.668C102.091 15.8804 102.091 15.5982 102.091 15.3161C102.091 15.0339 101.95 14.8929 101.668 14.8929H97.2946L97.0125 13.7643H102.232C103.925 13.7643 104.207 14.3286 104.207 15.0339C104.207 16.0214 103.361 16.1625 103.079 16.1625Z" fill="white"></path><path d="M106.182 13.7643V16.7268H110.837C111.12 16.7268 111.261 17.0089 111.261 17.2911C111.261 17.4321 111.12 17.8554 110.837 17.8554H105.759L105.477 18.9839H111.12C112.248 18.9839 113.377 18.5607 113.377 17.4321C113.377 16.3036 112.389 16.0214 111.402 16.0214H108.157V14.8929H112.248L112.53 13.7643H106.182Z" fill="white"></path></svg>