<svg viewBox="0 0 551.3 206" xmlns="http://www.w3.org/2000/svg"><path d="M329.8 146.1H325v-2.9h4.8v-14.7l6.4-10.3v24.9h7.3v2.9h-7.3v34.4c0 4.5 2.7 5.9 5.1 5.9 4.6 0 5.1-5.1 5.6-6.9l2 .4c-.5 2.6-1.4 10.9-8.8 11-5.3.1-10.2-2.5-10.2-9.7v-35zm187.3 0h-4.8v-2.9h4.8v-14.7l6.4-10.3v24.9h7.3v2.9h-7.3v34.4c0 4.5 2.7 5.9 5.1 5.9 4.6 0 5.1-5.1 5.6-6.9l2 .4c-.5 2.6-1.4 10.9-8.8 11-5.3.1-10.2-2.5-10.2-9.7v-35zM411 119.2h-32.4v2.5h3.6c.1.1.5.1 1.1.7.6.7.7 1.2.8 1.5v61.2c-.1.3-.1.8-.8 1.5-.6.6-.9.7-1.1.7h-3.6v2.5h17v-2.5h-3.8c-.2-.1-.5-.1-1-.7-.6-.7-.7-1.2-.8-1.5v-30.9h1.9c6.2 0 8 4.2 8 11.8h1.5v-26.7H400c0 6.5-1.8 12.4-8 12.4h-2v-27.8c.1-.3.1-.8.8-1.5.5-.6.9-.7 1-.7h9.5c6.5 0 8 6 8.3 17.8h1.4zm-115.9 50.7c-.1 7.7 1.7 18.1 7.8 18.3 2.6.1 9.3-.1 10.3-9h3.1c-1.2 10-7.3 12.1-12.9 12.1-10.4 0-14.7-10.2-14.7-24.6 0-10.5 2.8-24.1 14.7-24.1 12.6 0 14.1 16.8 14.1 22.6 0 .7-.5 1-.7 1h-21.7zm16-10.4c0-7-2.7-13.4-7.7-13.4-5.3 0-8.3 7.8-8.3 14.8v1.7h15.5c.4 0 .5-.3.5-.8zm108.4 10.4c-.1 7.7 1.7 18.1 7.8 18.3 2.6.1 9.3-.1 10.3-9h3.1c-1.2 10-7.3 12.1-12.9 12.1-10.4 0-14.7-10.2-14.7-24.6 0-10.5 2.8-24.1 14.7-24.1 12.6 0 14.1 16.8 14.1 22.6 0 .7-.5 1-.7 1h-21.7zm16-10.4c0-7-2.7-13.4-7.7-13.4-5.3 0-8.3 7.8-8.3 14.8v1.7H435c.4 0 .5-.3.5-.8zm40.1 19.7c-1.1 8.9-7.7 9.1-10.3 9-6.2-.2-7.9-10.5-7.8-18.3v-9c0-7 3-14.9 8.3-15.1 4-.2 8.2.4 9.9 6.9h-2.2v7.9h5.2v-.7c.2-7.5.2-17.4-12.9-17.4-11.9-.1-14.7 13.6-14.7 24.1 0 14.4 4.3 24.6 14.7 24.6 5.6 0 11.7-2.1 12.9-12.1h-3.1zm-456.4-57h3.4c.3.1 1.2.3 1.2 1.1v62.6c-.1.6-.7.9-1.1 1h-3.1v2.7h16.5v-2.7h-3.6c-.4-.1-1-.4-1-1.1v-62.7c.1-.6.8-.9 1.1-.9h3.5v-2.7h-17v2.7zm88.8 23.6h1.3c3.3 0 4.2-.5 3.9 1.9-.2 1.2-.9 5.1-1.8 7.8l-5.6 22.7-7-31.3v-.1c-.1-.8.8-1 1.1-1h2.4v-2.7H87.2v2.7h3c.2 0 1 .2 1.2 1l11.3 43.6h2.9l9.6-38c1.6-5.8.8-6.5 5.5-6.5v-2.7H108zm148.7 33.6c-.5 1.8-1 6.9-5.6 6.9-2.4 0-5.1-1.4-5.1-5.9V146h7.3v-2.9H246v-24.9l-6.4 10.3v14.7h-4.8v2.9h4.8v35.1c0 7.2 4.9 9.8 10.2 9.7 7.4-.2 8.3-8.4 8.8-11zm-40.5-59.9h5.1v8.3h-5.1zm-75 23.1c-11.9 0-14.7 13.6-14.7 24.1 0 14.4 4.3 24.6 14.7 24.6 5.6 0 11.7-2.1 12.9-12.1H151c-1.1 8.9-7.7 9.1-10.3 9-6.2-.2-7.9-10.5-7.8-18.3v-3.7h21.7c.2 0 .7-.3.7-1 0-5.8-1.5-22.6-14.1-22.6m7.7 19.2c0 .4-.2.8-.5.8h-15.5v-1.7c0-7 3-14.8 8.3-14.8 5 0 7.7 6.4 7.7 13.4zm-70.2 24.1v-28.3c0-6.4-3.2-15.1-11.4-15.1-5.6 0-8.4 4-10.4 9.2h-.2V143H46.1v2.7H49c.2 0 1.1.2 1.3 1v39.2c-.1.7-.9.9-1.2 1h-2.9v2.7h15.4v-2.7H58c-.3 0-1.3-.3-1.3-1.1v-27.2c1.4-3.7 3.7-12.4 10.1-12.4 2.4 0 5.4 4.7 5.4 10.7v28.9c0 .8-.8 1-1.2 1.1h-3v2.7h15.6v-2.7h-3.9c-.2-.1-.9-.3-1-1m143.2.1v-42.8h-10.6v2.7h2.8c.2 0 1.3.2 1.3 1.2V186c0 .8-.9 1.1-1.2 1.1h-2.9v2.7h15.4v-2.7h-3.6c-.3-.3-1-.5-1.2-1.1m-24.8-.1v-28.3c0-6.4-3.2-15.1-11.4-15.1-5.6 0-8.4 4-10.4 9.2h-.2V143h-10.6v2.7h2.9c.2 0 1.1.2 1.3 1v39.1c-.1.7-.9.9-1.2 1h-2.9v2.7H180v-2.7h-3.6c-.3 0-1.3-.3-1.3-1.1v-27.2c1.4-3.7 3.7-12.4 10.1-12.4 2.4 0 5.4 4.7 5.4 10.7v28.9c0 .8-.8 1-1.2 1.1h-3v2.7H202v-2.7h-3.9c-.1 0-.9-.2-1-.9m296.6-66.4h5.1v8.3h-5.1zm5.6 66.5v-42.8h-10.6v2.7h2.8c.2 0 1.3.2 1.3 1.2V186c0 .8-.9 1.1-1.2 1.1h-2.9v2.7h15.4v-2.7h-3.6c-.2-.3-1-.5-1.2-1.1M250.8 26.4c14.9 0 26.5 15.8 26.5 36.9s-11.6 36.9-26.5 36.9-26.5-15.8-26.5-36.9 11.6-36.9 26.5-36.9m0 69.6c15.7 0 16.5-19.3 16.5-32.7s-.7-32.7-16.5-32.7c-15.7 0-16 19.3-16 32.7s.3 32.7 16 32.7M63.6 27.1h-48V30h5.3c.2.1.7.1 1.6.7.9.7 1.1 1.2 1.1 1.5v62.3c-.1.3-.2.8-1.1 1.6-.8.6-1.4.7-1.6.7h-5.3v2.6H41v-2.6h-5.6c-.2-.1-.8-.1-1.5-.7-.9-.7-1.1-1.2-1.1-1.5V63h3.6c9.3 0 11.3 4.3 11.3 12.1h1.6V47.7h-1.6c0 6.7-2 12.7-11.2 12.7h-3.7V32.2c.1-.3.2-.8 1.1-1.6.8-.6 1.3-.7 1.5-.7h14.4c9.7 0 12 5.9 12.3 17.9h1.6zm30 69.7v2.6h26.8v-2.6H114c-.2-.1-.7-.1-1.6-.7-1-.7-1.1-1.3-1.1-1.6V65.2h13.4c10.7 0 20.6-4.5 20.6-19 0-14.8-8.3-19.1-21.5-19.1H93.6v2.6h6.1c.2.1.7.1 1.6.7.9.7 1 1.2 1.1 1.5v62.6c-.1.3-.2.8-1.1 1.5-.8.7-1.4.7-1.6.7zM111.3 32c.1-.3.2-.8 1.2-1.6.8-.6 1.3-.7 1.5-.7h7.8c10.5 0 16.7 4 16.7 17.5 0 13.9-9.5 15.3-15.3 15.3h-11.9zm104.6-17h-31.8v2.6h8.9c.2.1.7.1 1.6.7.9.7 1.1 1.3 1.1 1.6v59.9c0 7.9-7.6 14.7-13.3 14.7-11.1 0-14.6-7.1-14.6-8.6 0-.2 4.9-.3 4.9-5.5 0-3.2-2-4.7-4.2-4.7-2.6 0-4.8 1.4-4.8 6.1 0 6.1 7.2 18.2 21.1 18.2 12.8 0 20-10.4 20-23.5V19.8c.1-.3.2-.8 1.1-1.5.8-.6 1.3-.7 1.5-.7h8.5zm109.9 12.1v2.6h2.9c3.9 0 4.5.5 4.5 6.1v36.9c0 15.3-5.2 24.5-17.6 24.5-7.5 0-15.1-5.2-15.1-16.9V32c.1-.3.2-.8 1.2-1.6.8-.6 1.3-.7 1.5-.7h5.3v-2.6H285v2.6h4.7c.2.1.7.1 1.6.7 1 .7 1.1 1.3 1.1 1.6v40.4c0 16.3 8.5 28.2 23.1 28.2 11.7 0 20.9-8 20.9-24V35.8c0-5.2.5-6.2 4.3-6.2h2.8V27h-17.7zM410 85.6l-1.7-.1c-.2 1.1.3 6.8-3.9 6.8-2.7 0-2.7-1.4-4.1-4.1-.6-1.2-8.7-22.5-9.7-23.2l-.1-.4c10.2 0 17.3-7 17.3-19.5 0-15.5-11-18.2-21.2-18.2h-29.9v2.6h4.3c.2.1.7.1 1.6.7 1 .8 1.1 1.3 1.1 1.6v62.5c-.1.3-.2.8-1.1 1.6-.8.6-1.4.7-1.6.7h-6.1v2.6h26.9v-2.6h-6.3c-.2-.1-.8-.1-1.5-.7-1-.8-1.1-1.3-1.1-1.6V64.9H388s7.2 29.4 7.8 30.7c.2.4 1 4.2 6.9 4.2 8.5-.1 7.4-12.6 7.3-14.2m-22.6-23.3h-14.6V32c.1-.3.2-.8 1.1-1.6.8-.6 1.3-.7 1.5-.7h10.7c12.5 0 14.5 7.4 14.5 15.6.1 11.9-2.8 17-13.2 17M507 96.5c-.2-.1-.7-.1-1.6-.7-.9-.7-1.1-1.3-1.1-1.5V62.9h3.3c9.3 0 10.6 4.3 10.6 12.1h1.6V47.7h-1.6c0 6.7-1.3 12.7-10.5 12.7h-3.4V32.2c.1-.3.2-.8 1.1-1.6.7-.6 1.2-.7 1.5-.7h14.7c9.7 0 10.6 5.9 10.9 17.9h1.6V27.1h-46.9V30h5.4c.2.1.8.1 1.5.7.9.7 1.1 1.2 1.1 1.5v62c-.1.3-.2.8-1.1 1.6-.8.7-1.4.7-1.6.7h-5.3v2.9h46.9V78.7h-1.6c-.4 12-1.2 17.9-10.9 17.9zm-48.4-69.4v2.6h5.2c.2.1.8.1 1.5.7.9.7 1.1 1.3 1.1 1.6v49.2h-.2l-30.6-54.1h-18.3v2.6h4.6c.2.1.8.1 1.5.7 1 .8 1.1 1.3 1.1 1.6v62.5c-.1.3-.2.8-1.1 1.5-.8.6-1.4.7-1.6.7h-4.6v2.6h18.2v-2.6h-5.2c-.2-.1-.7-.1-1.6-.7-.9-.7-1.1-1.2-1.1-1.5V29.7l40 70.3h1.8V34.3c0-1.1 0-2 .1-2.6.1-.3.4-.7 1-1.2s1-.6 1.3-.7c.5 0 1-.1 1.7-.1h3.9v-2.6zM67.5 90.3h9.2v9.2h-9.2zm72.5.1h9.2v9.2H140z"/></svg>