<?xml version="1.0" encoding="UTF-8"?>
<svg id="Calque_2" data-name="Calque 2" xmlns="http://www.w3.org/2000/svg" viewBox="0 0 315.7 141.28">
  <defs>
    <style>
      .cls-1 {
        fill: #181716;
      }
    </style>
  </defs>
  <g id="Calque_1-2" data-name="Calque 1">
    <polygon class="cls-1" points="35.4 89.26 35.4 108.11 9.91 108.11 9.91 89.25 0 89.25 0 139.88 9.91 139.88 9.91 118.46 35.4 118.46 35.4 139.88 45.25 139.88 45.25 89.26 35.4 89.26"/>
    <path class="cls-1" d="m96.42,89.26v26.41c0,7.68-.79,15.82-13.37,15.82s-13.48-7.97-13.48-15.82v-26.41h-9.86v27.04c0,12.07,3.37,24.97,23.34,24.97s23.32-13.08,23.32-24.97v-27.04h-9.95Z"/>
    <polygon class="cls-1" points="178.84 89.26 178.84 139.86 213 139.86 213 129.62 188.75 129.62 188.75 89.26 178.84 89.26"/>
    <path class="cls-1" d="m243.19,131.26c-9.63,0-17.18-7.4-17.18-16.85s7.55-16.85,17.18-16.85,17.18,7.4,17.18,16.85-7.55,16.85-17.18,16.85m0-43.44c-15.21,0-27.13,11.69-27.13,26.6s11.92,26.59,27.13,26.59,27.12-11.68,27.12-26.59-11.92-26.6-27.12-26.6"/>
    <polygon class="cls-1" points="274.35 89.26 274.35 99.56 290.26 99.56 290.26 139.87 300.18 139.87 300.18 99.56 315.7 99.56 315.7 89.26 274.35 89.26"/>
    <g>
      <path class="cls-1" d="m146.62,130.63h-17.2v-12.71s17.26,0,17.26,0c5.11,0,7.33,1.99,7.33,6.54,0,3.4-1.39,6.18-7.39,6.18m-1.53-32.1c5.52,0,7.22,2,7.22,5.33s-1.48,5.71-7.01,5.71h-15.88s0-11.04,0-11.04h15.68Zm13.11,14.8c3.06-2.39,4.81-5.87,4.81-10.09s-1.7-13.98-17.43-13.98h-26.01v50.61h27.66c11.14,0,17.53-5.62,17.53-15.4,0-4.76-2.27-8.58-6.56-11.14"/>
      <path class="cls-1" d="m198.19,0h-9.78c0,9.75-3.78,15.7-14.1,20.41V0h-9.84v24c-2.42.73-5.06,1.44-7.93,2.15h0c-2.16.52-4.23,1.06-6.24,1.63V0h-9.84v31.08c-15.15,6.03-23.87,15-23.87,30.96h9.78c0-9.75,3.78-15.7,14.09-20.41v20.41h9.84v-24c2.43-.73,5.06-1.44,7.93-2.15h0c2.15-.52,4.23-1.06,6.24-1.63v27.79h9.84v-31.08c15.15-6.03,23.88-14.99,23.88-30.96"/>
    </g>
  </g>
</svg>