<svg version="1.1" id="Layer_1" xmlns:x="ns_extend;" xmlns:i="ns_ai;" xmlns:graph="ns_graphs;" xmlns="http://www.w3.org/2000/svg" xmlns:xlink="http://www.w3.org/1999/xlink" x="0px" y="0px" viewBox="0 0 283.1 66" style="enable-background:new 0 0 283.1 66;" xml:space="preserve">
 <style type="text/css">
  .st0{fill:#FFFFFF;}
 </style>
 <metadata>
  <sfw xmlns="ns_sfw;">
   <slices>
   </slices>
   <sliceSourceBounds bottomLeftOrigin="true" height="66" width="283.1" x="-68.2" y="-16.1">
   </sliceSourceBounds>
  </sfw>
 </metadata>
 <g>
  <path class="st0" d="M98,1.8c3.5,0,6.1,2,6.1,5.5c0,2-0.8,4.5-2.2,7.7L86.8,52.3L69.7,13.6c-1.4-2.9-2-5.1-2-7.3
		c0-2.4,2-4.5,6.3-4.5V0H48.9v1.8c5.1,0,6.7,1.8,9.6,8.6L82.7,66h1.4l22.6-55c2.8-6.5,6.3-9.4,9-9.4V0H98.2v1.8H98z M0,0v1.8
		c7.1,0,8.6,1.8,8.6,7.7v43.2c0,9.2-1.4,10.2-8.6,10.2v1.8h49.5L55,47.1l-1.4-0.4c-5.3,13.2-9,15.1-20.2,15.1h-6.9
		c-8.6,0-9-0.2-9-10.8V11.8c0-8.1,1.6-9.8,10.2-9.8V0H0z M204.9,1.8V0h-16.1l-23.6,51.1L140.6,0h-16.5v1.8c6.9,0,8.4,2.2,8.4,8.4
		v42.2c0,9.2-1.8,10.2-8.4,10.2v1.8h20v-1.8c-6.9,0-8.4-1-8.4-10.2V10.2l24.9,54.2h1.6L187,10.2v42.2c0,9.2-1.4,10.2-9,10.2v1.8
		h26.9v-1.8c-7.5,0-8.6-1.2-8.6-10.2V9.2C196.2,3.5,198,1.8,204.9,1.8 M231.4,12c0-9,1.4-10.2,8.6-10.2V0h-26.3v1.8
		c7.5,0,8.6,1.2,8.6,10.2v40.5c0,9-1.4,10.2-8.6,10.2v1.8H240v-1.8c-7.5,0-8.6-1.2-8.6-10.2V35.4c0-1.8,0.8-2.4,2.8-2.4h28.5
		c2.2,0,2.8,0.8,2.8,2.9v16.5c0,9-1.4,10.2-8.6,10.2v1.8h26.3v-1.8c-7.5,0-8.6-1.2-8.6-10.2V12c0-9,1.4-10.2,8.6-10.2V0h-26.3v1.8
		c7.5,0,8.6,1.2,8.6,10.2v15.1c0,2.4-0.6,2.9-2.8,2.9h-28.7c-2,0-2.8-0.6-2.8-2.2V12H231.4z">
  </path>
 </g>
</svg>