<?xml version="1.0" encoding="utf-8"?>
<!-- Generator: Adobe Illustrator 22.1.0, SVG Export Plug-In . SVG Version: 6.00 Build 0)  -->
<svg version="1.1"
	 id="svg8" inkscape:version="0.92.3 (2405546, 2018-03-11)" sodipodi:docname="tudor.svg" xmlns:cc="http://creativecommons.org/ns#" xmlns:dc="http://purl.org/dc/elements/1.1/" xmlns:inkscape="http://www.inkscape.org/namespaces/inkscape" xmlns:rdf="http://www.w3.org/1999/02/22-rdf-syntax-ns#" xmlns:sodipodi="http://sodipodi.sourceforge.net/DTD/sodipodi-0.dtd" xmlns:svg="http://www.w3.org/2000/svg"
	 xmlns="http://www.w3.org/2000/svg" xmlns:xlink="http://www.w3.org/1999/xlink" x="0px" y="0px" width="181.9px" height="101.8px"
	 viewBox="0 0 181.9 101.8" enable-background="new 0 0 181.9 101.8" xml:space="preserve">
<path id="path6170" inkscape:connector-curvature="0" fill="#FF0000" d="M105.22,18.99V9.71c-3.69,1.08-7.65,0.95-11.25-0.39V19
	L105.22,18.99z M87.92,18.99V9.31c-3.61,1.35-7.55,1.48-11.24,0.39V19L87.92,18.99z M110.18,24.59
	c-0.35,12.69-7.78,24.1-19.23,29.56C79.49,48.7,72.06,37.29,71.71,24.59V0.5c4.37,5.51,12.4,6.44,17.92,2.07
	c0.46-0.37,0.91-0.77,1.31-1.2c4.86,5.11,12.93,5.3,18.04,0.44c0.43-0.41,0.82-0.85,1.19-1.31L110.18,24.59z M105.08,24.59H76.82
	c0.31,9.82,5.64,18.78,14.12,23.73C99.44,43.37,104.77,34.42,105.08,24.59"/>
<path d="M52.56,96.74c0.8,0.03,1.61-0.03,2.38-0.2c2.64-0.56,4.63-2.74,4.92-5.42V74.36c0-0.13-0.03-0.25-0.09-0.37
	c-0.23-0.44-0.66-0.74-1.14-0.83c-0.87-0.21-1.75-0.37-2.63-0.49c-0.17-0.01-0.31-0.03-0.46-0.03h-0.82v-3.16h14.45v3.16h-0.33
	c-0.15,0-0.31,0.01-0.46,0.03c-0.89,0.12-1.77,0.27-2.64,0.49c-0.49,0.09-0.91,0.39-1.14,0.83c-0.06,0.12-0.09,0.24-0.09,0.37v16.76
	c0,0.95-0.18,1.89-0.52,2.77c-1.06,2.75-3.24,4.93-5.99,6c-1.91,0.69-3.92,1-5.94,0.92c-2.02,0.09-4.05-0.23-5.95-0.92
	c-2.48-0.68-4.57-2.38-5.73-4.68c-0.55-1.07-0.83-2.26-0.83-3.47V74.36c0-0.13-0.03-0.25-0.09-0.37c-0.23-0.44-0.66-0.74-1.14-0.83
	c-0.94-0.24-1.91-0.41-2.88-0.51v-3.16h14.77v3.16c-0.98,0.11-1.94,0.27-2.88,0.51c-0.49,0.09-0.92,0.39-1.16,0.83
	c-0.06,0.12-0.09,0.24-0.09,0.37V91.2c0.01,2.47,1.68,4.61,4.06,5.24C50.89,96.64,51.73,96.74,52.56,96.74 M6.74,100.15v-3.53h0.09
	c0.86-0.03,1.71-0.06,2.57-0.09c0.55-0.01,1.11-0.09,1.64-0.25c0.41-0.17,0.68-0.55,0.73-0.99V73.02h-1.68
	c-0.56,0-1.13,0.05-1.69,0.13c-0.92,0.14-1.75,0.61-2.36,1.31c-1.13,1.36-1.96,2.94-2.43,4.64H0.5v-9.62h28.97v9.62h-3.11
	c-0.46-1.7-1.3-3.29-2.43-4.64c-0.61-0.7-1.44-1.17-2.36-1.31c-0.56-0.09-1.13-0.13-1.69-0.13H18.2V95.3
	c0.05,0.44,0.32,0.82,0.73,0.99c0.54,0.15,1.1,0.24,1.66,0.25c0.85,0.03,1.7,0.06,2.56,0.09h0.09v3.53L6.74,100.15L6.74,100.15z
	 M89.65,69.49c3.05,0.09,6.06,0.77,8.85,2.01c7.22,3.5,10.34,12.11,7.04,19.42c-2.87,5.32-8.26,8.8-14.3,9.23H75.06V97.1
	c0.83-0.03,1.67-0.09,2.5-0.17c0.32-0.03,0.64-0.09,0.95-0.15c0.21-0.03,0.43-0.11,0.61-0.23c0.2-0.3,0.3-0.67,0.26-1.02V74.42
	c0-0.12,0-0.24-0.03-0.36c-0.06-0.5-0.38-0.94-0.85-1.17c-0.31-0.15-0.63-0.27-0.98-0.35c-0.82-0.14-1.64-0.26-2.48-0.35v-2.72
	L89.65,69.49z M85.8,72.91c-0.2,0.3-0.31,0.66-0.29,1.02l-0.05,21.6c-0.03,0.36,0.06,0.73,0.26,1.02c0.19,0.12,0.39,0.19,0.61,0.23
	c0.31,0.07,0.64,0.12,0.95,0.15c0.83,0.05,1.67,0.07,2.5,0.07c3.32,0.31,6.55-1.26,8.34-4.08c2.55-4.88,2.49-10.71-0.17-15.53
	c-1.79-2.8-4.78-4.6-8.09-4.85c-0.83-0.03-1.67-0.03-2.5,0.01c-0.32,0.03-0.64,0.07-0.95,0.13C86.19,72.72,85.99,72.79,85.8,72.91
	 M128.1,68.35c9.12,0,16.53,7.37,16.53,16.47s-7.41,16.48-16.53,16.48s-16.52-7.38-16.52-16.48S118.98,68.35,128.1,68.35
	 M135.09,93.9c1.52-2.77,2.25-5.92,2.1-9.09c0.15-3.16-0.57-6.31-2.1-9.07c-1.5-2.41-4.16-3.85-6.99-3.79
	c-2.83-0.06-5.49,1.38-6.99,3.79c-1.52,2.76-2.25,5.92-2.1,9.07c-0.15,3.17,0.57,6.31,2.1,9.09c1.5,2.41,4.16,3.85,6.99,3.79
	C130.94,97.75,133.59,96.31,135.09,93.9 M169.32,82.85c1.91-0.48,3.33-2.06,3.62-4c0.43-2.72-1.44-5.28-4.16-5.69
	c-0.11-0.01-0.2-0.03-0.31-0.03c-1.39-0.23-2.82-0.33-4.24-0.33h-6.1v10.49h7.84C167.1,83.25,168.22,83.11,169.32,82.85
	 M163.29,86.83h-5.16v8.51c0.01,0.32,0.15,0.62,0.41,0.81c0.06,0.06,0.13,0.09,0.2,0.12c0.33,0.12,0.69,0.2,1.05,0.24
	c0.81,0.11,1.63,0.2,2.45,0.29v3.36H148.1v-3.39c0.82-0.09,1.66-0.17,2.48-0.25c0.36-0.03,0.7-0.12,1.04-0.24
	c0.09-0.03,0.15-0.06,0.21-0.12c0.25-0.19,0.39-0.49,0.39-0.81l0.01-21.07c0.03-0.32-0.09-0.63-0.32-0.85
	c-0.06-0.06-0.13-0.11-0.2-0.13c-0.32-0.15-0.67-0.26-1.01-0.33c-0.87-0.15-1.73-0.32-2.6-0.51v-2.97h21.91c1.51,0,3,0.45,4.26,1.29
	c2.29,1.54,3.73,4.04,3.92,6.78c0.32,4.88-3.37,9.11-8.25,9.44l6.04,8.16c0.49,0.66,1.21,1.1,2.02,1.21
	c1.13,0.15,2.26,0.27,3.39,0.39v3.39h-8.78L163.29,86.83z"/>
</svg>
