<svg height="137.64944" viewBox="0 0 50.263941 9.4423632" width="726.483157" xmlns="http://www.w3.org/2000/svg" xmlns:xlink="http://www.w3.org/1999/xlink"><symbol id="a" overflow="visible"/><symbol id="b" overflow="visible"/><symbol id="c" overflow="visible"/><g transform="translate(-651.82101 -756.28269)"><use fill="#211e1e" height="100%" transform="matrix(.35277778 0 0 .35277778 -176.42029 75.314642)" width="100%" x="497.20969" href="#a" y="867.85352"/><use height="100%" transform="matrix(.35277777 0 0 .35277777 434.89376 423.4975)" width="100%" x="405.94971" href="#b" y="284.17639"/><use height="100%" transform="matrix(.35277777 0 0 .35277777 434.89376 423.4975)" width="100%" x="127.5591" href="#c" y="327.74969"/><g fill="#211e1e"><path d="m673.37904 764.63497-1.00046-.74965.88194.28388zm-.0207-.42719s1.61782.62701 3.0179.83234l-.001.42995-2.77399-1.06799zm3.10886.74414.46715-.36793s.82958.0469 2.12356-.3514l.33486-.0248s-1.43592.58429-2.92557.74414m2.8043-.52228.19982-.18327-.0992.40652zm.2136-.25218-.41755-.23151 1.28296-.0537zm-2.87735-5.06429-.23288-.15296v5.99171l-.4272-.55259.33349-6.27421c-.39688-.0455-.70693-.36932-.70693-.76206 0-.42443.35967-.76756.80064-.76756.44235 0 .80064.34313.80064.76756 0 .42306-.35829.76757-.80064.76757v.80064l1.40008.1819zm-.4892-.19843-.011.19981-1.15893-.001zm-2.43775 5.00503-.0951.226-.27561-.007zm2.4474-5.16075-1.82728.34313 1.78732.34726-.26321 4.95267h-.31281c-.76344-.0152-1.40009-.15571-1.79421-.26871l.12678-.29353-1.8259-.0785 1.40422 1.05282.13367-.30731 2.81809 1.0859 2.80706-1.08176.13091.30317 1.40422-1.05282-1.8259.0785.12816.29766c-.39549.11162-1.02526.24943-1.7818.26458h-.3073l-.29766-4.94302 1.83279-.35691-1.87551-.34451-.0289-.47405c.45475-.0841.79789-.46577.79789-.92604 0-.5209-.44098-.94258-.98392-.94258-.54295 0-.98254.42168-.98254.94258 0 .44787.32521.82131.76067.91778zm0 0"/><path d="m676.37351 757.86605c-.2632 0-.4768-.20395-.4768-.45751 0-.25218.2136-.45613.4768-.45613.26321 0 .47543.20395.47543.45613 0 .25356-.21222.45751-.47543.45751m0 .10197c.36243 0 .65595-.28111.65595-.62976 0-.34726-.29352-.62838-.65595-.62838-.36242 0-.65594.28112-.65594.62838 0 .34865.29352.62976.65594.62976"/><path d="m694.00138 762.0291h-1.06109v-1.60679h1.06109c.45613.0124.82682.37207.82682.8034 0 .43132-.37069.79099-.82682.80339m.0165-2.43637h-2.09324c.16261.17364.14883.33487.14883.57602h.003v2.11529h-.001c0 .23978.0138.40101-.14745.57602h2.09049c.92328-.022 1.67569-.75379 1.67569-1.63435 0-.87919-.75241-1.6123-1.67569-1.63298"/><path d="m701.80521 760.00063c.004-.15434.0276-.27698.14745-.4079h-1.16169c.16123.17364.14883.33487.14883.57602v1.43454l-1.94166-2.01056h-1.04455c.16123.17364.14883.33487.14883.57602v2.25447c-.001.16675-.0207.29766-.14745.43684h1.16168c-.16123-.17501-.14882-.33624-.14882-.57602v-1.50206l2.00504 2.07808h.97979c-.11989-.13091-.14332-.25494-.14745-.40928zm0 0"/><path d="m697.21634 760.05713c.001-.1819.0138-.31833.14883-.4644h-1.16169c.13505.14607.14745.2825.14745.4644v2.33853c0 .18052-.0124.31833-.14745.4644h1.16169c-.13505-.14607-.14745-.28388-.14883-.4644zm0 0"/><path d="m684.79471 761.55092.50022-.99907.50023.99907zm2.61551 1.30914-1.63573-3.26733h-1.2044c.0827.0951.11299.26321.011.46716l-1.40146 2.80017h1.12034c-.0827-.073-.0758-.16261-.0358-.24942l.11438-.23013h1.83141l.0965.19154c.004.008.008.0166.0124.0248l.007.0124c.0386.0882.0468.17777-.0358.2508zm0 0"/><path d="m690.09464 761.25327h-1.32429v-.83096h1.32429c.18741 0 .37069.20671.37069.41617s-.18328.41479-.37069.41479m.55673.68626c.39549-.21359.67937-.63665.67937-1.10105 0-.66421-.5774-1.24575-1.2361-1.24575h-2.33853c.13505.1447.14883.28112.14883.46165v2.36884c-.003.16812-.0207.29766-.14883.43684h1.16031c-.11438-.12402-.14056-.24115-.14607-.38309v-.39412h.84198l.74689.77721h1.17685zm0 0"/><path d="m682.67253 760.00063c.004-.15434.0275-.27698.14745-.4079h-1.16169c.16123.17364.14883.33487.14883.57602v1.43454l-1.94166-2.01056h-1.04455c.16123.17364.14883.33487.14883.57602v2.25447c-.001.16675-.0193.29766-.14745.43684h1.16168c-.16123-.17501-.14883-.33624-.14883-.57602v-1.50206l2.00505 2.07808h.97979c-.11989-.13091-.14332-.25494-.14745-.40928zm0 0"/><path d="m655.8435 759.59273h-1.16031c.13229.14332.14745.27699.14883.45338v1.42627c.001.0951-.0221.23288-.14607.35553-.15848.15434-.43822.2384-.78686.2384-.35002 0-.62839-.0841-.78686-.2384-.12403-.12265-.14745-.26045-.14607-.3638v-1.46899c.004-.15158.0289-.27285.14745-.40239h-1.16031c.12126.13092.14469.25494.14745.41066v1.45245c-.007.35829.13229.69729.39412.95222.22737.22325.65594.48921 1.40422.48921.74827 0 1.17684-.26596 1.40422-.48921.26045-.25493.40101-.59393.39274-.94395v-1.47588c.006-.14883.0303-.26872.14745-.3955"/><path d="m661.02079 761.58262 1.49103-1.98989h-1.28708c.0951.0827.0951.18328.008.2825l.001.001-.6463.86128-.67661-.90265c-.0538-.0868-.0427-.17088.0386-.24254h-1.28571l1.49104 1.98989v.86816c-.004.15572-.0262.27837-.14745.40928h1.16031c-.11851-.12816-.14332-.24942-.14745-.39825zm0 0"/><path d="m658.78561 762.02773h-1.46485v-2.02572c.004-.15572.0276-.27836.14745-.40928h-1.16031c.11989.12954.14331.25081.14745.40377v2.45291c-.004.15571-.0262.27974-.14745.41065h2.89663v-.97427c-.13504.11438-.26182.1378-.41892.14194"/><path d="m673.37215 760.37408c.15434.006.27974.0289.41203.14194v-.27285h-.001v-.65044h-3.17087c.16261.17502.14883.33625.14883.57602h.001v2.11529h-.001c0 .23978.0138.40101-.14883.57602h3.17087v-.92466c-.13229.11438-.25907.1378-.41479.14194h-1.74046v-.46991h1.67845v-.76206h-1.67845v-.47129zm0 0"/><path d="m664.60782 760.86604c-.46302-.051-1.12586-.0427-1.12586-.30317 0-.1378.12265-.24942.75655-.24942.44924 0 .78548.073 1.01699.15296.1254.0496.20257.0965.28112.20808l.11851-.24942h-.001l.20257-.42857.0841-.17226c-.14744.0276-.24253.007-.35691-.0331-.3197-.11714-.81442-.23978-1.50206-.23978-1.35048 0-1.47588.8282-1.47588 1.02526 0 .72071.70556.89986 1.4869.97565.79513.0785 1.11346.0317 1.08176.29352-.0193.15159-.31832.27148-.91639.27148-.38585 0-.77446-.11989-1.04455-.22876h-.001c-.12127-.0606-.19569-.113-.26459-.23151l-.051.0882-.3142.54433-.12953.21773c.12953-.0152.21497.004.3073.04.39963.17364 1.02113.35416 1.60817.35416 1.15618 0 1.67294-.54984 1.67294-1.07074 0-.74551-.70969-.88332-1.43316-.96462"/><path d="m668.67028 760.86604c-.46164-.051-1.12448-.0427-1.12448-.30317 0-.1378.12127-.24942.75654-.24942.44924 0 .78548.073 1.017.15296.1254.0496.20257.0965.28111.20808l.11852-.24942h-.001l.20257-.42857.0841-.17226c-.14745.0276-.24254.007-.35692-.0331-.32108-.11714-.81442-.23978-1.50206-.23978-1.35048 0-1.47588.8282-1.47588 1.02526 0 .72071.70556.89986 1.4869.97565.79513.0785 1.11346.0317 1.08177.29352-.0193.15159-.31971.27148-.9164.27148-.38585 0-.77446-.11989-1.04455-.22876h-.001c-.12127-.0606-.19569-.113-.26597-.23151l-.0496.0882h-.001l-.31282.54433-.12953.21773c.12815-.0152.21497.004.3073.04.39963.17364 1.02112.35416 1.60817.35416 1.15617 0 1.67294-.54984 1.67294-1.07074 0-.74551-.70969-.88332-1.43454-.96462"/></g></g></svg>