<?xml version="1.0" encoding="UTF-8" standalone="no"?>
<!-- Created with Inkscape (http://www.inkscape.org/) -->

<svg
   xmlns:dc="http://purl.org/dc/elements/1.1/"
   xmlns:cc="http://creativecommons.org/ns#"
   xmlns:rdf="http://www.w3.org/1999/02/22-rdf-syntax-ns#"
   xmlns:svg="http://www.w3.org/2000/svg"
   xmlns="http://www.w3.org/2000/svg"
   xmlns:sodipodi="http://sodipodi.sourceforge.net/DTD/sodipodi-0.dtd"
   xmlns:inkscape="http://www.inkscape.org/namespaces/inkscape"
   width="198.29167"
   height="65.583435"
   viewBox="0 0 52.46467 17.352284"
   version="1.1"
   id="svg8"
   inkscape:version="0.92.3 (2405546, 2018-03-11)"
   sodipodi:docname="vacheron.svg">
  <defs
     id="defs2">
    <g
       id="g244">
      <symbol
         id="glyph0-0"
         overflow="visible"
         style="overflow:visible">
        <path
           id="path10"
           d=""
           style="stroke:none"
           inkscape:connector-curvature="0" />
      </symbol>
      <symbol
         id="glyph0-1"
         overflow="visible"
         style="overflow:visible">
        <path
           id="path13"
           d="M 0.640625,0 V -6.125 H 1.3125 V 0 Z m 0,0"
           style="stroke:none"
           inkscape:connector-curvature="0" />
      </symbol>
      <symbol
         id="glyph0-2"
         overflow="visible"
         style="overflow:visible">
        <path
           id="path16"
           d="M 1.53125,-4.5 H 2.6875 v 0.453125 H 1.53125 V 0 h -0.625 V -4.046875 H 0.203125 v -0.40625 L 0.90625,-4.5 v -0.609375 c 0,-0.414063 0.09375,-0.71875 0.28125,-0.90625 0.1875,-0.1875 0.507813,-0.28125 0.96875,-0.28125 0.101563,0 0.210938,0.00781 0.328125,0.015625 0.125,0.011719 0.242188,0.027344 0.359375,0.046875 l -0.0625,0.5 C 2.675781,-5.753906 2.585938,-5.765625 2.515625,-5.765625 2.441406,-5.773438 2.367188,-5.78125 2.296875,-5.78125 c -0.292969,0 -0.496094,0.054687 -0.609375,0.15625 -0.105469,0.105469 -0.15625,0.296875 -0.15625,0.578125 z m 0,0"
           style="stroke:none"
           inkscape:connector-curvature="0" />
      </symbol>
      <symbol
         id="glyph0-3"
         overflow="visible"
         style="overflow:visible">
        <path
           id="path19"
           d=""
           style="stroke:none"
           inkscape:connector-curvature="0" />
      </symbol>
      <symbol
         id="glyph0-4"
         overflow="visible"
         style="overflow:visible">
        <path
           id="path22"
           d="m 0.421875,-4.5 h 0.71875 l 1.4375,3.875 H 2.59375 L 3.9375,-4.5 H 4.609375 L 2.875,0.328125 c -0.199219,0.550781 -0.433594,0.945313 -0.703125,1.1875 -0.273437,0.25 -0.617187,0.375 -1.03125,0.375 -0.105469,0 -0.210937,-0.00781 -0.3125,-0.015625 C 0.722656,1.863281 0.628906,1.847656 0.546875,1.828125 l 0.0625,-0.53125 C 0.679688,1.316406 0.75,1.328125 0.8125,1.328125 0.882813,1.335938 0.953125,1.34375 1.015625,1.34375 c 0.164063,0 0.3125,-0.042969 0.4375,-0.125 0.125,-0.074219 0.234375,-0.171875 0.328125,-0.296875 0.101563,-0.125 0.1875,-0.261719 0.25,-0.40625 C 2.101563,0.378906 2.164063,0.238281 2.21875,0.09375 Z m 0,0"
           style="stroke:none"
           inkscape:connector-curvature="0" />
      </symbol>
      <symbol
         id="glyph0-5"
         overflow="visible"
         style="overflow:visible">
        <path
           id="path25"
           d="m 2.46875,-4.0625 c -0.261719,0 -0.480469,0.054687 -0.65625,0.15625 -0.167969,0.09375 -0.304687,0.226562 -0.40625,0.390625 -0.105469,0.15625 -0.179687,0.34375 -0.21875,0.5625 C 1.144531,-2.734375 1.125,-2.5 1.125,-2.25 c 0,0.25 0.019531,0.484375 0.0625,0.703125 0.039063,0.21875 0.113281,0.414062 0.21875,0.578125 0.101563,0.15625 0.238281,0.289062 0.40625,0.390625 0.175781,0.09375 0.394531,0.140625 0.65625,0.140625 0.257813,0 0.476563,-0.046875 0.65625,-0.140625 C 3.300781,-0.679688 3.441406,-0.8125 3.546875,-0.96875 3.648438,-1.132813 3.722656,-1.328125 3.765625,-1.546875 3.804688,-1.765625 3.828125,-2 3.828125,-2.25 c 0,-0.25 -0.023437,-0.484375 -0.0625,-0.703125 -0.042969,-0.21875 -0.117187,-0.40625 -0.21875,-0.5625 C 3.441406,-3.679688 3.300781,-3.8125 3.125,-3.90625 2.945313,-4.007813 2.726563,-4.0625 2.46875,-4.0625 Z m 0,4.15625 c -0.367187,0 -0.679687,-0.0585937 -0.9375,-0.171875 C 1.28125,-0.191406 1.070313,-0.351563 0.90625,-0.5625 0.75,-0.769531 0.632813,-1.015625 0.5625,-1.296875 0.488281,-1.585938 0.453125,-1.90625 0.453125,-2.25 c 0,-0.34375 0.035156,-0.65625 0.109375,-0.9375 0.070313,-0.289063 0.1875,-0.539063 0.34375,-0.75 0.164063,-0.207031 0.375,-0.367188 0.625,-0.484375 0.257813,-0.113281 0.570313,-0.171875 0.9375,-0.171875 0.375,0 0.6875,0.058594 0.9375,0.171875 0.25,0.117187 0.457031,0.277344 0.625,0.484375 0.164063,0.210937 0.28125,0.460937 0.34375,0.75 0.070313,0.28125 0.109375,0.59375 0.109375,0.9375 0,0.34375 -0.039062,0.664062 -0.109375,0.953125 -0.0625,0.28125 -0.179687,0.527344 -0.34375,0.734375 -0.167969,0.210937 -0.375,0.371094 -0.625,0.484375 -0.25,0.1132813 -0.5625,0.171875 -0.9375,0.171875 z m 0,0"
           style="stroke:none"
           inkscape:connector-curvature="0" />
      </symbol>
      <symbol
         id="glyph0-6"
         overflow="visible"
         style="overflow:visible">
        <path
           id="path28"
           d="m 3.59375,-4.5 h 0.625 V 0 h -0.625 V -0.640625 H 3.578125 C 3.347656,-0.429688 3.09375,-0.253906 2.8125,-0.109375 2.53125,0.0234375 2.226563,0.09375 1.90625,0.09375 c -0.460937,0 -0.804687,-0.125 -1.03125,-0.375 -0.21875,-0.25 -0.328125,-0.617188 -0.328125,-1.109375 V -4.5 h 0.625 v 2.984375 c 0,0.15625 0.015625,0.304687 0.046875,0.4375 0.039063,0.125 0.097656,0.234375 0.171875,0.328125 0.082031,0.09375 0.1875,0.171875 0.3125,0.234375 0.125,0.054687 0.28125,0.078125 0.46875,0.078125 0.144531,0 0.285156,-0.019531 0.421875,-0.0625 0.144531,-0.039063 0.273438,-0.09375 0.390625,-0.15625 0.125,-0.0625 0.238281,-0.125 0.34375,-0.1875 0.101563,-0.070313 0.191406,-0.140625 0.265625,-0.203125 z m 0,0"
           style="stroke:none"
           inkscape:connector-curvature="0" />
      </symbol>
      <symbol
         id="glyph0-7"
         overflow="visible"
         style="overflow:visible">
        <path
           id="path31"
           d="M 3.546875,-3.53125 2.53125,0.046875 H 1.828125 L 0.421875,-4.5 H 1.125 l 1.109375,3.828125 H 2.25 L 3.265625,-4.5 H 3.875 l 1.0625,3.828125 H 4.953125 L 6.015625,-4.5 h 0.65625 L 5.3125,0.046875 H 4.609375 L 3.5625,-3.53125 Z m 0,0"
           style="stroke:none"
           inkscape:connector-curvature="0" />
      </symbol>
      <symbol
         id="glyph0-8"
         overflow="visible"
         style="overflow:visible">
        <path
           id="path34"
           d="M 1.171875,-4.5 V 0 h -0.625 v -4.5 z m 0,-1.625 v 1.078125 h -0.625 V -6.125 Z m 0,0"
           style="stroke:none"
           inkscape:connector-curvature="0" />
      </symbol>
      <symbol
         id="glyph0-9"
         overflow="visible"
         style="overflow:visible">
        <path
           id="path37"
           d="M 3.90625,-1.234375 C 3.90625,-0.804688 3.769531,-0.476563 3.5,-0.25 3.226563,-0.0195313 2.828125,0.09375 2.296875,0.09375 c -0.34375,0 -0.679687,-0.0234375 -1,-0.0625 C 0.972656,0 0.675781,-0.046875 0.40625,-0.109375 L 0.53125,-0.625 c 0.363281,0.09375 0.695313,0.152344 1,0.171875 0.3125,0.023437 0.539063,0.03125 0.6875,0.03125 0.238281,0 0.425781,-0.03125 0.5625,-0.09375 C 2.925781,-0.585938 3.035156,-0.664063 3.109375,-0.75 3.179688,-0.832031 3.226563,-0.914063 3.25,-1 3.269531,-1.09375 3.28125,-1.160156 3.28125,-1.203125 3.28125,-1.285156 3.265625,-1.363281 3.234375,-1.4375 3.203125,-1.519531 3.144531,-1.59375 3.0625,-1.65625 2.976563,-1.71875 2.863281,-1.773438 2.71875,-1.828125 2.570313,-1.890625 2.378906,-1.945313 2.140625,-2 1.910156,-2.039063 1.695313,-2.09375 1.5,-2.15625 1.300781,-2.21875 1.125,-2.300781 0.96875,-2.40625 0.820313,-2.507813 0.707031,-2.640625 0.625,-2.796875 0.539063,-2.953125 0.5,-3.144531 0.5,-3.375 c 0,-0.40625 0.132813,-0.707031 0.40625,-0.90625 0.28125,-0.207031 0.679688,-0.3125 1.203125,-0.3125 0.34375,0 0.65625,0.023437 0.9375,0.0625 C 3.328125,-4.5 3.601563,-4.453125 3.875,-4.390625 L 3.75,-3.875 C 3.394531,-3.96875 3.078125,-4.023438 2.796875,-4.046875 2.515625,-4.066406 2.300781,-4.078125 2.15625,-4.078125 c -0.242187,0 -0.429687,0.03125 -0.5625,0.09375 -0.136719,0.054687 -0.242187,0.117187 -0.3125,0.1875 -0.0625,0.074219 -0.105469,0.152344 -0.125,0.234375 -0.011719,0.074219 -0.015625,0.132812 -0.015625,0.171875 0,0.085937 0.00781,0.167969 0.03125,0.25 0.03125,0.074219 0.082031,0.148437 0.15625,0.21875 0.070313,0.0625 0.175781,0.125 0.3125,0.1875 0.144531,0.054687 0.335938,0.105469 0.578125,0.15625 0.238281,0.054687 0.460938,0.109375 0.671875,0.171875 0.207031,0.0625 0.382813,0.148437 0.53125,0.25 0.15625,0.105469 0.273438,0.230469 0.359375,0.375 0.082031,0.148437 0.125,0.328125 0.125,0.546875 z m 0,0"
           style="stroke:none"
           inkscape:connector-curvature="0" />
      </symbol>
      <symbol
         id="glyph0-10"
         overflow="visible"
         style="overflow:visible">
        <path
           id="path40"
           d="m 1.171875,0 h -0.625 v -6.296875 h 0.625 v 2.453125 h 0.03125 c 0.21875,-0.21875 0.46875,-0.394531 0.75,-0.53125 0.28125,-0.144531 0.585938,-0.21875 0.921875,-0.21875 0.445313,0 0.78125,0.132812 1,0.390625 0.226563,0.25 0.34375,0.617187 0.34375,1.09375 V 0 h -0.625 V -2.984375 C 3.59375,-3.296875 3.519531,-3.550781 3.375,-3.75 3.226563,-3.957031 2.96875,-4.0625 2.59375,-4.0625 2.445313,-4.0625 2.304688,-4.039063 2.171875,-4 2.035156,-3.957031 1.90625,-3.90625 1.78125,-3.84375 c -0.125,0.0625 -0.242187,0.132812 -0.34375,0.203125 -0.105469,0.0625 -0.195312,0.125 -0.265625,0.1875 z m 0,0"
           style="stroke:none"
           inkscape:connector-curvature="0" />
      </symbol>
      <symbol
         id="glyph0-11"
         overflow="visible"
         style="overflow:visible">
        <path
           id="path43"
           d="M 0.90625,-4.046875 H 0.203125 v -0.40625 L 0.90625,-4.5 0.984375,-5.765625 H 1.53125 V -4.5 H 2.875 v 0.453125 H 1.53125 v 2.625 c 0,0.335937 0.054688,0.585937 0.171875,0.75 0.113281,0.167969 0.332031,0.25 0.65625,0.25 0.070313,0 0.144531,0 0.21875,0 0.082031,-0.007813 0.175781,-0.023438 0.28125,-0.046875 l 0.0625,0.5 C 2.796875,0.0390625 2.660156,0.0507813 2.515625,0.0625 2.378906,0.0820313 2.257813,0.09375 2.15625,0.09375 c -0.4375,0 -0.757812,-0.1015625 -0.953125,-0.3125 C 1.003906,-0.425781 0.90625,-0.796875 0.90625,-1.328125 Z m 0,0"
           style="stroke:none"
           inkscape:connector-curvature="0" />
      </symbol>
      <symbol
         id="glyph0-12"
         overflow="visible"
         style="overflow:visible">
        <path
           id="path46"
           d="m 1.171875,0 h -0.625 v -4.5 h 0.625 v 0.71875 h 0.03125 c 0.09375,-0.101563 0.203125,-0.203125 0.328125,-0.296875 0.132813,-0.09375 0.273438,-0.175781 0.421875,-0.25 0.15625,-0.082031 0.316406,-0.144531 0.484375,-0.1875 C 2.601563,-4.566406 2.78125,-4.59375 2.96875,-4.59375 V -4 C 2.78125,-4 2.597656,-3.976563 2.421875,-3.9375 2.253906,-3.894531 2.09375,-3.84375 1.9375,-3.78125 1.78125,-3.726563 1.632813,-3.664063 1.5,-3.59375 1.375,-3.519531 1.265625,-3.453125 1.171875,-3.390625 Z m 0,0"
           style="stroke:none"
           inkscape:connector-curvature="0" />
      </symbol>
      <symbol
         id="glyph0-13"
         overflow="visible"
         style="overflow:visible">
        <path
           id="path49"
           d="m 1.140625,-2.171875 c 0.00781,0.25 0.039063,0.484375 0.09375,0.703125 0.0625,0.210937 0.15625,0.390625 0.28125,0.546875 0.125,0.15625 0.285156,0.277344 0.484375,0.359375 0.207031,0.085937 0.457031,0.125 0.75,0.125 0.226563,0 0.457031,-0.007813 0.6875,-0.03125 0.226563,-0.019531 0.46875,-0.070313 0.71875,-0.15625 l 0.078125,0.515625 C 3.960938,-0.0234375 3.707031,0.0234375 3.46875,0.046875 3.226563,0.078125 2.957031,0.09375 2.65625,0.09375 2.25,0.09375 1.90625,0.0351563 1.625,-0.078125 1.351563,-0.191406 1.128906,-0.351563 0.953125,-0.5625 0.773438,-0.769531 0.644531,-1.015625 0.5625,-1.296875 0.488281,-1.585938 0.453125,-1.90625 0.453125,-2.25 c 0,-0.34375 0.035156,-0.65625 0.109375,-0.9375 0.082031,-0.289063 0.207031,-0.539063 0.375,-0.75 0.175781,-0.207031 0.398438,-0.367188 0.671875,-0.484375 0.269531,-0.113281 0.601563,-0.171875 1,-0.171875 0.34375,0 0.628906,0.054687 0.859375,0.15625 0.226563,0.09375 0.40625,0.21875 0.53125,0.375 0.132813,0.15625 0.226563,0.335937 0.28125,0.53125 0.050781,0.1875 0.078125,0.375 0.078125,0.5625 0.019531,0.136719 0.019531,0.273437 0,0.40625 -0.011719,0.136719 -0.03125,0.265625 -0.0625,0.390625 z m 1.4375,-1.921875 c -0.261719,0 -0.480469,0.042969 -0.65625,0.125 -0.167969,0.074219 -0.308594,0.179687 -0.421875,0.3125 -0.117187,0.136719 -0.199219,0.296875 -0.25,0.484375 -0.054687,0.1875 -0.089844,0.386719 -0.109375,0.59375 H 3.6875 C 3.707031,-2.660156 3.722656,-2.75 3.734375,-2.84375 3.742188,-2.9375 3.738281,-3.023438 3.71875,-3.109375 3.707031,-3.242188 3.679688,-3.367188 3.640625,-3.484375 3.597656,-3.597656 3.53125,-3.703125 3.4375,-3.796875 3.351563,-3.890625 3.238281,-3.960938 3.09375,-4.015625 2.945313,-4.066406 2.773438,-4.09375 2.578125,-4.09375 Z m 0,0"
           style="stroke:none"
           inkscape:connector-curvature="0" />
      </symbol>
      <symbol
         id="glyph0-14"
         overflow="visible"
         style="overflow:visible">
        <path
           id="path52"
           d="m 0.453125,-2.25 c 0,-0.34375 0.035156,-0.65625 0.109375,-0.9375 0.082031,-0.289063 0.207031,-0.539063 0.375,-0.75 0.164063,-0.207031 0.382813,-0.367188 0.65625,-0.484375 0.28125,-0.113281 0.617188,-0.171875 1.015625,-0.171875 0.28125,0 0.53125,0.023437 0.75,0.0625 0.226563,0.03125 0.476563,0.078125 0.75,0.140625 L 4,-3.875 C 3.644531,-3.96875 3.363281,-4.019531 3.15625,-4.03125 2.945313,-4.050781 2.765625,-4.0625 2.609375,-4.0625 c -0.273437,0 -0.5,0.046875 -0.6875,0.140625 -0.1875,0.09375 -0.34375,0.226562 -0.46875,0.390625 -0.117187,0.15625 -0.199219,0.34375 -0.25,0.5625 C 1.148438,-2.75 1.125,-2.507813 1.125,-2.25 c 0,0.261719 0.023438,0.5 0.078125,0.71875 0.050781,0.21875 0.132813,0.414062 0.25,0.578125 0.125,0.15625 0.28125,0.28125 0.46875,0.375 0.1875,0.09375 0.414063,0.140625 0.6875,0.140625 0.15625,0 0.335938,-0.003906 0.546875,-0.015625 C 3.363281,-0.472656 3.644531,-0.53125 4,-0.625 l 0.109375,0.515625 C 3.835938,-0.046875 3.585938,0 3.359375,0.03125 c -0.21875,0.0390625 -0.46875,0.0625 -0.75,0.0625 C 2.210938,0.09375 1.875,0.0351563 1.59375,-0.078125 1.320313,-0.191406 1.101563,-0.351563 0.9375,-0.5625 0.769531,-0.769531 0.644531,-1.015625 0.5625,-1.296875 0.488281,-1.585938 0.453125,-1.90625 0.453125,-2.25 Z m 0,0"
           style="stroke:none"
           inkscape:connector-curvature="0" />
      </symbol>
      <symbol
         id="glyph0-15"
         overflow="visible"
         style="overflow:visible">
        <path
           id="path55"
           d="M 2.140625,0.046875 0.421875,-4.5 h 0.71875 l 1.375,3.828125 H 2.53125 L 3.9375,-4.5 h 0.671875 l -1.71875,4.546875 z m 0,0"
           style="stroke:none"
           inkscape:connector-curvature="0" />
      </symbol>
      <symbol
         id="glyph0-16"
         overflow="visible"
         style="overflow:visible">
        <path
           id="path58"
           d="m 1.171875,0 h -0.625 v -4.5 h 0.625 v 0.65625 h 0.03125 c 0.082031,-0.09375 0.175781,-0.179688 0.28125,-0.265625 0.113281,-0.09375 0.234375,-0.175781 0.359375,-0.25 0.125,-0.070313 0.253906,-0.128906 0.390625,-0.171875 0.144531,-0.039063 0.300781,-0.0625 0.46875,-0.0625 0.664063,0 1.078125,0.273437 1.234375,0.8125 C 4.144531,-4 4.382813,-4.1875 4.65625,-4.34375 c 0.28125,-0.164063 0.585938,-0.25 0.921875,-0.25 0.445313,0 0.78125,0.132812 1,0.390625 0.226563,0.25 0.34375,0.617187 0.34375,1.09375 V 0 h -0.625 V -2.984375 C 6.296875,-3.296875 6.21875,-3.550781 6.0625,-3.75 5.914063,-3.957031 5.660156,-4.0625 5.296875,-4.0625 c -0.125,0 -0.25,0.023437 -0.375,0.0625 -0.125,0.042969 -0.246094,0.09375 -0.359375,0.15625 -0.105469,0.0625 -0.203125,0.132812 -0.296875,0.203125 -0.09375,0.074219 -0.179687,0.140625 -0.25,0.203125 0.019531,0.136719 0.03125,0.296875 0.03125,0.484375 V 0 h -0.625 v -3 c 0,-0.15625 -0.023437,-0.296875 -0.0625,-0.421875 C 3.328125,-3.554688 3.269531,-3.664063 3.1875,-3.75 3.113281,-3.84375 3.015625,-3.914063 2.890625,-3.96875 2.765625,-4.03125 2.613281,-4.0625 2.4375,-4.0625 2.300781,-4.0625 2.171875,-4.039063 2.046875,-4 1.929688,-3.957031 1.820313,-3.90625 1.71875,-3.84375 c -0.105469,0.054687 -0.203125,0.117187 -0.296875,0.1875 -0.09375,0.074219 -0.179687,0.140625 -0.25,0.203125 z m 0,0"
           style="stroke:none"
           inkscape:connector-curvature="0" />
      </symbol>
      <symbol
         id="glyph0-17"
         overflow="visible"
         style="overflow:visible">
        <path
           id="path61"
           d="m 1.171875,0 h -0.625 v -4.5 h 0.625 v 0.65625 h 0.03125 c 0.21875,-0.21875 0.46875,-0.394531 0.75,-0.53125 0.28125,-0.144531 0.585938,-0.21875 0.921875,-0.21875 0.445313,0 0.78125,0.132812 1,0.390625 0.226563,0.25 0.34375,0.617187 0.34375,1.09375 V 0 h -0.625 V -2.984375 C 3.59375,-3.296875 3.519531,-3.550781 3.375,-3.75 3.226563,-3.957031 2.96875,-4.0625 2.59375,-4.0625 2.445313,-4.0625 2.304688,-4.039063 2.171875,-4 2.035156,-3.957031 1.90625,-3.90625 1.78125,-3.84375 c -0.125,0.0625 -0.242187,0.132812 -0.34375,0.203125 -0.105469,0.0625 -0.195312,0.125 -0.265625,0.1875 z m 0,0"
           style="stroke:none"
           inkscape:connector-curvature="0" />
      </symbol>
      <symbol
         id="glyph0-18"
         overflow="visible"
         style="overflow:visible">
        <path
           id="path64"
           d="M 3.359375,-2.171875 H 2.34375 c -0.25,0 -0.460937,0.023437 -0.625,0.0625 -0.167969,0.042969 -0.304687,0.105469 -0.40625,0.1875 -0.09375,0.074219 -0.164062,0.167969 -0.203125,0.28125 -0.042969,0.117187 -0.0625,0.242187 -0.0625,0.375 0,0.261719 0.09375,0.46875 0.28125,0.625 0.1875,0.15625 0.445313,0.234375 0.78125,0.234375 0.300781,0 0.554688,-0.046875 0.765625,-0.140625 C 3.082031,-0.648438 3.242188,-0.75 3.359375,-0.84375 Z M 2.25,-4.0625 c -0.167969,0 -0.367187,0.011719 -0.59375,0.03125 -0.21875,0.023437 -0.5,0.070312 -0.84375,0.140625 L 0.71875,-4.40625 c 0.289063,-0.0625 0.582031,-0.109375 0.875,-0.140625 0.289063,-0.03125 0.554688,-0.046875 0.796875,-0.046875 0.25,0 0.472656,0.027344 0.671875,0.078125 0.207031,0.042969 0.378906,0.121094 0.515625,0.234375 0.132813,0.117187 0.238281,0.265625 0.3125,0.453125 C 3.960938,-3.640625 4,-3.398438 4,-3.109375 V 0 H 3.359375 V -0.453125 H 3.34375 C 3.113281,-0.253906 2.882813,-0.113281 2.65625,-0.03125 2.4375,0.0507813 2.175781,0.09375 1.875,0.09375 1.425781,0.09375 1.066406,-0.0195313 0.796875,-0.25 0.535156,-0.488281 0.40625,-0.804688 0.40625,-1.203125 c 0,-0.238281 0.046875,-0.441406 0.140625,-0.609375 0.09375,-0.175781 0.21875,-0.316406 0.375,-0.421875 0.164063,-0.113281 0.363281,-0.195313 0.59375,-0.25 0.238281,-0.050781 0.5,-0.078125 0.78125,-0.078125 h 1.0625 v -0.515625 c 0,-0.332031 -0.085937,-0.578125 -0.25,-0.734375 C 2.941406,-3.976563 2.65625,-4.0625 2.25,-4.0625 Z m 0,0"
           style="stroke:none"
           inkscape:connector-curvature="0" />
      </symbol>
      <symbol
         id="glyph0-19"
         overflow="visible"
         style="overflow:visible">
        <path
           id="path67"
           d="M 2.984375,-0.78125 4.78125,-6.125 h 0.703125 l -2.125,6.171875 H 2.53125 L 0.375,-6.125 h 0.734375 l 1.859375,5.34375 z m 0,0"
           style="stroke:none"
           inkscape:connector-curvature="0" />
      </symbol>
      <symbol
         id="glyph0-20"
         overflow="visible"
         style="overflow:visible">
        <path
           id="path70"
           d="m 0.546875,-3.109375 c 0,-0.425781 0.035156,-0.828125 0.109375,-1.203125 0.070313,-0.375 0.203125,-0.703125 0.390625,-0.984375 0.195313,-0.28125 0.457031,-0.5 0.78125,-0.65625 0.332031,-0.164063 0.757813,-0.25 1.28125,-0.25 0.34375,0 0.679688,0.027344 1.015625,0.078125 0.332031,0.042969 0.679688,0.117187 1.046875,0.21875 l -0.15625,0.5625 C 4.796875,-5.394531 4.597656,-5.4375 4.421875,-5.46875 4.242188,-5.507813 4.082031,-5.539063 3.9375,-5.5625 3.789063,-5.582031 3.65625,-5.59375 3.53125,-5.59375 c -0.125,-0.00781 -0.25,-0.015625 -0.375,-0.015625 -0.386719,0 -0.703125,0.070312 -0.953125,0.203125 -0.25,0.125 -0.449219,0.308594 -0.59375,0.546875 C 1.472656,-4.628906 1.378906,-4.363281 1.328125,-4.0625 1.273438,-3.757813 1.25,-3.441406 1.25,-3.109375 c 0,0.367187 0.023438,0.703125 0.078125,1.015625 0.050781,0.3125 0.144531,0.589844 0.28125,0.828125 0.144531,0.242187 0.34375,0.429687 0.59375,0.5625 0.25,0.136719 0.566406,0.203125 0.953125,0.203125 0.125,0 0.25,0 0.375,0 0.125,-0.007813 0.257813,-0.023438 0.40625,-0.046875 0.144531,-0.019531 0.304688,-0.046875 0.484375,-0.078125 0.175781,-0.039063 0.375,-0.09375 0.59375,-0.15625 l 0.15625,0.5625 C 4.804688,-0.101563 4.457031,-0.0234375 4.125,0.015625 3.789063,0.0664063 3.453125,0.09375 3.109375,0.09375 c -0.523437,0 -0.949219,-0.0859375 -1.28125,-0.25 -0.324219,-0.164063 -0.585937,-0.394531 -0.78125,-0.6875 -0.1875,-0.289063 -0.320312,-0.628906 -0.390625,-1.015625 -0.074219,-0.394531 -0.109375,-0.8125 -0.109375,-1.25 z m 0,0"
           style="stroke:none"
           inkscape:connector-curvature="0" />
      </symbol>
      <symbol
         id="glyph0-21"
         overflow="visible"
         style="overflow:visible">
        <path
           id="path73"
           d="M 0.625,1.171875 0.78125,0 H 0.546875 v -1.09375 h 0.625 V 0 l -0.3125,1.171875 z m 0,0"
           style="stroke:none"
           inkscape:connector-curvature="0" />
      </symbol>
      <symbol
         id="glyph0-22"
         overflow="visible"
         style="overflow:visible">
        <path
           id="path76"
           d="m 0.546875,-6.296875 h 0.625 V 0 h -0.625 z m 0,0"
           style="stroke:none"
           inkscape:connector-curvature="0" />
      </symbol>
      <symbol
         id="glyph0-23"
         overflow="visible"
         style="overflow:visible">
        <path
           id="path79"
           d="m 1.171875,-4.046875 h 0.03125 c 0.164063,-0.15625 0.375,-0.285156 0.625,-0.390625 0.25,-0.101563 0.515625,-0.15625 0.796875,-0.15625 0.3125,0 0.578125,0.0625 0.796875,0.1875 0.21875,0.117187 0.390625,0.28125 0.515625,0.5 0.132813,0.210937 0.226563,0.453125 0.28125,0.734375 0.0625,0.28125 0.09375,0.589844 0.09375,0.921875 0,0.335937 -0.03125,0.640625 -0.09375,0.921875 -0.0625,0.28125 -0.164062,0.53125 -0.296875,0.75 -0.136719,0.210937 -0.3125,0.375 -0.53125,0.5 C 3.171875,0.0351563 2.90625,0.09375 2.59375,0.09375 2.320313,0.09375 2.0625,0.046875 1.8125,-0.046875 1.5625,-0.148438 1.34375,-0.28125 1.15625,-0.4375 H 1.140625 L 1.03125,0.015625 H 0.546875 v -6.3125 h 0.625 z M 3.640625,-2.25 c 0,-0.238281 -0.023437,-0.46875 -0.0625,-0.6875 C 3.546875,-3.15625 3.476563,-3.347656 3.375,-3.515625 3.28125,-3.679688 3.148438,-3.8125 2.984375,-3.90625 2.828125,-4.007813 2.628906,-4.0625 2.390625,-4.0625 2.253906,-4.0625 2.125,-4.046875 2,-4.015625 1.875,-3.984375 1.757813,-3.945313 1.65625,-3.90625 1.550781,-3.863281 1.457031,-3.816406 1.375,-3.765625 1.300781,-3.710938 1.234375,-3.664063 1.171875,-3.625 v 2.75 c 0.0625,0.042969 0.128906,0.089844 0.203125,0.140625 0.082031,0.054687 0.175781,0.101562 0.28125,0.140625 C 1.757813,-0.550781 1.875,-0.515625 2,-0.484375 c 0.125,0.03125 0.253906,0.046875 0.390625,0.046875 0.238281,0 0.4375,-0.046875 0.59375,-0.140625 C 3.148438,-0.679688 3.28125,-0.816406 3.375,-0.984375 3.476563,-1.148438 3.546875,-1.335938 3.578125,-1.546875 3.617188,-1.765625 3.640625,-2 3.640625,-2.25 Z m 0,0"
           style="stroke:none"
           inkscape:connector-curvature="0" />
      </symbol>
      <symbol
         id="glyph0-24"
         overflow="visible"
         style="overflow:visible">
        <path
           id="path82"
           d="M 1.171875,-1.09375 V 0 h -0.625 v -1.09375 z m 0,-3.046875 v 1.109375 h -0.625 v -1.109375 z m 0,0"
           style="stroke:none"
           inkscape:connector-curvature="0" />
      </symbol>
      <symbol
         id="glyph0-25"
         overflow="visible"
         style="overflow:visible">
        <path
           id="path85"
           d="M 1.171875,-1.09375 V 0 h -0.625 v -1.09375 z m 0,0"
           style="stroke:none"
           inkscape:connector-curvature="0" />
      </symbol>
      <symbol
         id="glyph0-26"
         overflow="visible"
         style="overflow:visible">
        <path
           id="path88"
           d="M 3.953125,-2.640625 V -2.125 h -3.40625 v -0.515625 z m 0,0"
           style="stroke:none"
           inkscape:connector-curvature="0" />
      </symbol>
      <symbol
         id="glyph1-0"
         overflow="visible"
         style="overflow:visible">
        <path
           id="path91"
           d=""
           style="stroke:none"
           inkscape:connector-curvature="0" />
      </symbol>
      <symbol
         id="glyph1-1"
         overflow="visible"
         style="overflow:visible">
        <path
           id="path94"
           d="m 0.1875,-2.046875 c 0,-0.289063 0.050781,-0.5625 0.15625,-0.8125 0.113281,-0.257813 0.265625,-0.484375 0.453125,-0.671875 0.195313,-0.1875 0.421875,-0.332031 0.671875,-0.4375 0.257813,-0.113281 0.535156,-0.171875 0.828125,-0.171875 0.289063,0 0.5625,0.058594 0.8125,0.171875 0.257813,0.105469 0.484375,0.25 0.671875,0.4375 0.195313,0.1875 0.347656,0.414062 0.453125,0.671875 0.113281,0.25 0.171875,0.523437 0.171875,0.8125 0,0.292969 -0.058594,0.570312 -0.171875,0.828125 -0.105469,0.261719 -0.257812,0.484375 -0.453125,0.671875 -0.1875,0.1875 -0.414062,0.339844 -0.671875,0.453125 -0.25,0.1015625 -0.523437,0.15625 -0.8125,0.15625 C 2.003906,0.0625 1.726563,0.0078125 1.46875,-0.09375 1.21875,-0.207031 0.992188,-0.359375 0.796875,-0.546875 0.609375,-0.734375 0.457031,-0.957031 0.34375,-1.21875 0.238281,-1.476563 0.1875,-1.753906 0.1875,-2.046875 Z m 0.15625,0 c 0,0.28125 0.046875,0.542969 0.140625,0.78125 0.101563,0.230469 0.242188,0.433594 0.421875,0.609375 0.175781,0.179687 0.382813,0.320312 0.625,0.421875 0.238281,0.09375 0.492188,0.140625 0.765625,0.140625 0.257813,0 0.507813,-0.046875 0.75,-0.140625 0.238281,-0.101563 0.445313,-0.242188 0.625,-0.421875 0.175781,-0.175781 0.316406,-0.378906 0.421875,-0.609375 0.101563,-0.238281 0.15625,-0.5 0.15625,-0.78125 0,-0.257813 -0.054687,-0.507813 -0.15625,-0.75 -0.105469,-0.238281 -0.246094,-0.441406 -0.421875,-0.609375 -0.179687,-0.175781 -0.386719,-0.316406 -0.625,-0.421875 -0.242187,-0.101563 -0.492187,-0.15625 -0.75,-0.15625 -0.273437,0 -0.527344,0.054687 -0.765625,0.15625 -0.242187,0.105469 -0.449219,0.246094 -0.625,0.421875 -0.179687,0.167969 -0.320312,0.371094 -0.421875,0.609375 -0.09375,0.242187 -0.140625,0.492187 -0.140625,0.75 z m 1.96875,-0.875 c -0.273437,0 -0.46875,0.078125 -0.59375,0.234375 -0.117187,0.15625 -0.171875,0.367187 -0.171875,0.625 0,0.28125 0.054688,0.507812 0.171875,0.671875 0.125,0.167969 0.320313,0.25 0.59375,0.25 0.113281,0 0.222656,-0.00781 0.328125,-0.03125 0.101563,-0.03125 0.207031,-0.082031 0.3125,-0.15625 L 3.03125,-1.1875 C 2.957031,-1.132813 2.863281,-1.082031 2.75,-1.03125 c -0.117187,0.042969 -0.265625,0.0625 -0.453125,0.0625 -0.324219,0 -0.5625,-0.09375 -0.71875,-0.28125 -0.15625,-0.1875 -0.234375,-0.457031 -0.234375,-0.8125 0,-0.332031 0.078125,-0.585938 0.234375,-0.765625 0.15625,-0.175781 0.394531,-0.265625 0.71875,-0.265625 0.1875,0 0.335938,0.027344 0.453125,0.078125 0.113281,0.042969 0.207031,0.085937 0.28125,0.125 l -0.078125,0.15625 C 2.847656,-2.796875 2.742188,-2.84375 2.640625,-2.875 2.535156,-2.90625 2.425781,-2.921875 2.3125,-2.921875 Z m 0,0"
           style="stroke:none"
           inkscape:connector-curvature="0" />
      </symbol>
      <symbol
         id="glyph1-2"
         overflow="visible"
         style="overflow:visible">
        <path
           id="path97"
           d=""
           style="stroke:none"
           inkscape:connector-curvature="0" />
      </symbol>
      <symbol
         id="glyph1-3"
         overflow="visible"
         style="overflow:visible">
        <path
           id="path100"
           d="m 2.484375,-2.078125 c 0.269531,0.0625 0.472656,0.183594 0.609375,0.359375 0.144531,0.179687 0.21875,0.390625 0.21875,0.640625 0,0.335937 -0.101562,0.601562 -0.296875,0.796875 C 2.828125,-0.09375 2.539063,0 2.15625,0 h -1.6875 v -4.078125 h 1.578125 c 0.375,0 0.65625,0.101562 0.84375,0.296875 0.195313,0.1875 0.296875,0.433594 0.296875,0.734375 0,0.242187 -0.058594,0.449219 -0.171875,0.625 -0.117187,0.167969 -0.292969,0.277344 -0.53125,0.328125 z M 0.78125,-1.9375 v 1.65625 h 1.328125 c 0.28125,0 0.492188,-0.066406 0.640625,-0.203125 0.15625,-0.144531 0.234375,-0.351563 0.234375,-0.625 0,-0.25 -0.078125,-0.445313 -0.234375,-0.59375 C 2.59375,-1.859375 2.347656,-1.9375 2.015625,-1.9375 Z M 2.859375,-3 c 0,-0.238281 -0.074219,-0.429688 -0.21875,-0.578125 -0.148437,-0.144531 -0.355469,-0.21875 -0.625,-0.21875 H 0.78125 v 1.578125 h 1.234375 c 0.269531,0 0.476563,-0.0625 0.625,-0.1875 C 2.785156,-2.539063 2.859375,-2.738281 2.859375,-3 Z m 0,0"
           style="stroke:none"
           inkscape:connector-curvature="0" />
      </symbol>
      <symbol
         id="glyph1-4"
         overflow="visible"
         style="overflow:visible">
        <path
           id="path103"
           d="M 0.703125,0 H 0.40625 v -3 h 0.296875 v 0.484375 H 0.71875 C 0.789063,-2.585938 0.867188,-2.65625 0.953125,-2.71875 1.046875,-2.78125 1.144531,-2.835938 1.25,-2.890625 1.351563,-2.941406 1.460938,-2.984375 1.578125,-3.015625 1.691406,-3.046875 1.8125,-3.0625 1.9375,-3.0625 v 0.296875 c -0.125,0 -0.25,0.015625 -0.375,0.046875 -0.117187,0.023437 -0.230469,0.058594 -0.34375,0.109375 -0.105469,0.042969 -0.203125,0.09375 -0.296875,0.15625 -0.085937,0.054687 -0.15625,0.101562 -0.21875,0.140625 z m 0,0"
           style="stroke:none"
           inkscape:connector-curvature="0" />
      </symbol>
      <symbol
         id="glyph1-5"
         overflow="visible"
         style="overflow:visible">
        <path
           id="path106"
           d="M 2.46875,-3 H 2.765625 V 0 H 2.46875 V -0.453125 H 2.453125 c -0.15625,0.148437 -0.335937,0.273437 -0.53125,0.375 -0.1875,0.09375 -0.398437,0.140625 -0.625,0.140625 -0.59375,0 -0.890625,-0.320313 -0.890625,-0.96875 V -3 h 0.296875 v 2.03125 c 0,0.105469 0.007813,0.203125 0.03125,0.296875 0.03125,0.09375 0.070313,0.179687 0.125,0.25 0.050781,0.074219 0.125,0.132812 0.21875,0.171875 0.09375,0.042969 0.207031,0.0625 0.34375,0.0625 0.113281,0 0.222656,-0.015625 0.328125,-0.046875 0.101563,-0.03125 0.195313,-0.066406 0.28125,-0.109375 0.09375,-0.050781 0.175781,-0.101563 0.25,-0.15625 0.070313,-0.0625 0.132813,-0.113281 0.1875,-0.15625 z m 0,0"
           style="stroke:none"
           inkscape:connector-curvature="0" />
      </symbol>
      <symbol
         id="glyph1-6"
         overflow="visible"
         style="overflow:visible">
        <path
           id="path109"
           d="M 0.703125,0 H 0.40625 v -3 h 0.296875 v 0.453125 H 0.71875 C 0.875,-2.691406 1.046875,-2.8125 1.234375,-2.90625 1.429688,-3.007813 1.644531,-3.0625 1.875,-3.0625 c 0.59375,0 0.890625,0.328125 0.890625,0.984375 V 0 H 2.46875 v -2.015625 c 0,-0.113281 -0.011719,-0.21875 -0.03125,-0.3125 -0.023437,-0.09375 -0.0625,-0.175781 -0.125,-0.25 -0.054687,-0.070313 -0.125,-0.125 -0.21875,-0.15625 -0.085937,-0.039063 -0.199219,-0.0625 -0.34375,-0.0625 -0.105469,0 -0.210937,0.015625 -0.3125,0.046875 -0.105469,0.03125 -0.203125,0.074219 -0.296875,0.125 -0.085937,0.042969 -0.167969,0.089844 -0.25,0.140625 -0.074219,0.054687 -0.136719,0.101562 -0.1875,0.140625 z m 0,0"
           style="stroke:none"
           inkscape:connector-curvature="0" />
      </symbol>
      <symbol
         id="glyph1-7"
         overflow="visible"
         style="overflow:visible">
        <path
           id="path112"
           d="m 1.65625,-2.796875 c -0.199219,0 -0.359375,0.039062 -0.484375,0.109375 -0.125,0.0625 -0.230469,0.15625 -0.3125,0.28125 -0.074219,0.117187 -0.125,0.25 -0.15625,0.40625 -0.03125,0.15625 -0.046875,0.324219 -0.046875,0.5 0,0.179687 0.015625,0.34375 0.046875,0.5 0.03125,0.15625 0.082031,0.296875 0.15625,0.421875 0.082031,0.117187 0.1875,0.210937 0.3125,0.28125 0.125,0.074219 0.285156,0.109375 0.484375,0.109375 C 1.84375,-0.1875 2,-0.222656 2.125,-0.296875 2.25,-0.367188 2.347656,-0.460938 2.421875,-0.578125 2.503906,-0.703125 2.5625,-0.84375 2.59375,-1 2.625,-1.15625 2.640625,-1.320313 2.640625,-1.5 2.640625,-1.675781 2.625,-1.84375 2.59375,-2 2.5625,-2.15625 2.503906,-2.289063 2.421875,-2.40625 2.347656,-2.53125 2.25,-2.625 2.125,-2.6875 2,-2.757813 1.84375,-2.796875 1.65625,-2.796875 Z m 0,2.859375 C 1.414063,0.0625 1.210938,0.0234375 1.046875,-0.046875 0.878906,-0.128906 0.742188,-0.238281 0.640625,-0.375 0.535156,-0.507813 0.457031,-0.671875 0.40625,-0.859375 0.363281,-1.054688 0.34375,-1.269531 0.34375,-1.5 c 0,-0.226563 0.019531,-0.4375 0.0625,-0.625 0.050781,-0.1875 0.128906,-0.347656 0.234375,-0.484375 0.101563,-0.144531 0.238281,-0.253906 0.40625,-0.328125 0.164063,-0.082031 0.367188,-0.125 0.609375,-0.125 0.238281,0 0.4375,0.042969 0.59375,0.125 0.164063,0.074219 0.300781,0.183594 0.40625,0.328125 0.101563,0.136719 0.175781,0.296875 0.21875,0.484375 0.050781,0.1875 0.078125,0.398437 0.078125,0.625 0,0.230469 -0.027344,0.445312 -0.078125,0.640625 C 2.832031,-0.671875 2.757813,-0.507813 2.65625,-0.375 2.550781,-0.238281 2.414063,-0.128906 2.25,-0.046875 2.09375,0.0234375 1.894531,0.0625 1.65625,0.0625 Z m 0,0"
           style="stroke:none"
           inkscape:connector-curvature="0" />
      </symbol>
      <symbol
         id="glyph1-8"
         overflow="visible"
         style="overflow:visible">
        <path
           id="path115"
           d="M 2.921875,-3.796875 H 0.78125 v 1.53125 h 1.875 v 0.28125 h -1.875 V -0.28125 H 2.953125 V 0 H 0.46875 v -4.078125 h 2.453125 z m 0,0"
           style="stroke:none"
           inkscape:connector-curvature="0" />
      </symbol>
      <symbol
         id="glyph1-9"
         overflow="visible"
         style="overflow:visible">
        <path
           id="path118"
           d="M 0.703125,0 H 0.40625 v -4.203125 h 0.296875 v 1.65625 H 0.71875 C 0.875,-2.691406 1.046875,-2.8125 1.234375,-2.90625 1.429688,-3.007813 1.644531,-3.0625 1.875,-3.0625 c 0.59375,0 0.890625,0.328125 0.890625,0.984375 V 0 H 2.46875 v -2.015625 c 0,-0.113281 -0.011719,-0.21875 -0.03125,-0.3125 -0.023437,-0.09375 -0.0625,-0.175781 -0.125,-0.25 -0.054687,-0.070313 -0.125,-0.125 -0.21875,-0.15625 -0.085937,-0.039063 -0.199219,-0.0625 -0.34375,-0.0625 -0.105469,0 -0.210937,0.015625 -0.3125,0.046875 -0.105469,0.03125 -0.203125,0.074219 -0.296875,0.125 -0.085937,0.042969 -0.167969,0.089844 -0.25,0.140625 -0.074219,0.054687 -0.136719,0.101562 -0.1875,0.140625 z m 0,0"
           style="stroke:none"
           inkscape:connector-curvature="0" />
      </symbol>
      <symbol
         id="glyph1-10"
         overflow="visible"
         style="overflow:visible">
        <path
           id="path121"
           d="m 2.5625,-0.796875 c 0,0.273437 -0.089844,0.484375 -0.265625,0.640625 C 2.128906,-0.0078125 1.875,0.0625 1.53125,0.0625 1.300781,0.0625 1.082031,0.0507813 0.875,0.03125 0.675781,0.0078125 0.488281,-0.0195313 0.3125,-0.0625 l 0.0625,-0.25 C 0.601563,-0.25 0.820313,-0.210938 1.03125,-0.203125 1.238281,-0.191406 1.394531,-0.1875 1.5,-0.1875 c 0.175781,0 0.316406,-0.023438 0.421875,-0.078125 0.101563,-0.050781 0.175781,-0.109375 0.21875,-0.171875 0.050781,-0.070313 0.082031,-0.140625 0.09375,-0.203125 0.019531,-0.0625 0.03125,-0.109375 0.03125,-0.140625 0,-0.0625 -0.011719,-0.117188 -0.03125,-0.171875 -0.023437,-0.0625 -0.0625,-0.117188 -0.125,-0.171875 -0.0625,-0.050781 -0.148437,-0.097656 -0.25,-0.140625 C 1.753906,-1.316406 1.613281,-1.359375 1.4375,-1.390625 1.289063,-1.421875 1.148438,-1.457031 1.015625,-1.5 0.890625,-1.539063 0.773438,-1.59375 0.671875,-1.65625 0.578125,-1.726563 0.503906,-1.8125 0.453125,-1.90625 0.398438,-2.007813 0.375,-2.132813 0.375,-2.28125 c 0,-0.25 0.082031,-0.441406 0.25,-0.578125 0.175781,-0.132813 0.4375,-0.203125 0.78125,-0.203125 0.226563,0 0.429688,0.011719 0.609375,0.03125 0.175781,0.023437 0.351563,0.054687 0.53125,0.09375 l -0.0625,0.25 c -0.230469,-0.050781 -0.4375,-0.082031 -0.625,-0.09375 -0.1875,-0.019531 -0.335937,-0.03125 -0.4375,-0.03125 -0.179687,0 -0.320312,0.027344 -0.421875,0.078125 -0.09375,0.042969 -0.167969,0.09375 -0.21875,0.15625 -0.054687,0.054687 -0.085937,0.109375 -0.09375,0.171875 -0.011719,0.054687 -0.015625,0.09375 -0.015625,0.125 0,0.054687 0.003906,0.109375 0.015625,0.171875 0.019531,0.0625 0.0625,0.121094 0.125,0.171875 0.0625,0.054687 0.144531,0.101562 0.25,0.140625 0.101563,0.042969 0.238281,0.085937 0.40625,0.125 0.175781,0.03125 0.332031,0.074219 0.46875,0.125 0.132813,0.042969 0.242188,0.101562 0.328125,0.171875 0.09375,0.0625 0.164063,0.140625 0.21875,0.234375 0.050781,0.09375 0.078125,0.210937 0.078125,0.34375 z m 0,0"
           style="stroke:none"
           inkscape:connector-curvature="0" />
      </symbol>
      <symbol
         id="glyph1-11"
         overflow="visible"
         style="overflow:visible">
        <path
           id="path124"
           d="M 0.640625,0 H 0.375 l 2.21875,-4.078125 h 0.265625 z m 0,0"
           style="stroke:none"
           inkscape:connector-curvature="0" />
      </symbol>
      <symbol
         id="glyph1-12"
         overflow="visible"
         style="overflow:visible">
        <path
           id="path127"
           d="M 1.984375,-0.359375 3.28125,-4.078125 H 3.609375 L 2.171875,0.03125 H 1.78125 l -1.5,-4.109375 h 0.359375 z m 0,0"
           style="stroke:none"
           inkscape:connector-curvature="0" />
      </symbol>
      <symbol
         id="glyph1-13"
         overflow="visible"
         style="overflow:visible">
        <path
           id="path130"
           d="M 2.328125,-1.484375 H 1.59375 C 1.40625,-1.484375 1.25,-1.46875 1.125,-1.4375 1,-1.40625 0.894531,-1.359375 0.8125,-1.296875 c -0.074219,0.054687 -0.125,0.125 -0.15625,0.21875 C 0.625,-0.992188 0.609375,-0.90625 0.609375,-0.8125 c 0,0.1875 0.066406,0.339844 0.203125,0.453125 0.132813,0.117187 0.332031,0.171875 0.59375,0.171875 0.113281,0 0.21875,-0.007813 0.3125,-0.03125 0.09375,-0.019531 0.175781,-0.046875 0.25,-0.078125 0.082031,-0.03125 0.148438,-0.0625 0.203125,-0.09375 C 2.234375,-0.429688 2.285156,-0.46875 2.328125,-0.5 Z m -0.796875,-1.3125 c -0.117187,0 -0.25,0.00781 -0.40625,0.015625 -0.148437,0.011719 -0.335937,0.039062 -0.5625,0.078125 l -0.046875,-0.25 c 0.1875,-0.03125 0.375,-0.054688 0.5625,-0.078125 0.1875,-0.019531 0.359375,-0.03125 0.515625,-0.03125 0.164063,0 0.3125,0.015625 0.4375,0.046875 0.125,0.03125 0.226563,0.089844 0.3125,0.171875 0.09375,0.074219 0.160156,0.171875 0.203125,0.296875 0.050781,0.125 0.078125,0.28125 0.078125,0.46875 V 0 H 2.328125 V -0.296875 H 2.3125 c -0.167969,0.125 -0.328125,0.21875 -0.484375,0.28125 C 1.679688,0.0351563 1.503906,0.0625 1.296875,0.0625 1.003906,0.0625 0.765625,-0.0078125 0.578125,-0.15625 0.398438,-0.3125 0.3125,-0.519531 0.3125,-0.78125 c 0,-0.3125 0.101563,-0.539063 0.3125,-0.6875 0.21875,-0.144531 0.535156,-0.21875 0.953125,-0.21875 h 0.75 v -0.375 c 0,-0.25 -0.0625,-0.429688 -0.1875,-0.546875 -0.117187,-0.125 -0.320312,-0.1875 -0.609375,-0.1875 z m 0,0"
           style="stroke:none"
           inkscape:connector-curvature="0" />
      </symbol>
      <symbol
         id="glyph1-14"
         overflow="visible"
         style="overflow:visible">
        <path
           id="path133"
           d="m 0.34375,-1.5 c 0,-0.226563 0.019531,-0.4375 0.0625,-0.625 0.050781,-0.1875 0.132813,-0.347656 0.25,-0.484375 0.113281,-0.144531 0.257813,-0.253906 0.4375,-0.328125 0.175781,-0.082031 0.390625,-0.125 0.640625,-0.125 0.1875,0 0.351563,0.011719 0.5,0.03125 0.144531,0.023437 0.3125,0.054687 0.5,0.09375 l -0.0625,0.25 c -0.230469,-0.050781 -0.417969,-0.082031 -0.5625,-0.09375 -0.148437,-0.00781 -0.273437,-0.015625 -0.375,-0.015625 -0.199219,0 -0.367187,0.039062 -0.5,0.109375 C 1.097656,-2.625 0.988281,-2.535156 0.90625,-2.421875 0.820313,-2.304688 0.757813,-2.164063 0.71875,-2 c -0.042969,0.15625 -0.0625,0.324219 -0.0625,0.5 0,0.179687 0.019531,0.351562 0.0625,0.515625 0.039063,0.15625 0.101563,0.296875 0.1875,0.421875 0.082031,0.117187 0.191406,0.210937 0.328125,0.28125 0.132813,0.0625 0.300781,0.09375 0.5,0.09375 0.101563,0 0.226563,-0.003906 0.375,-0.015625 C 2.253906,-0.210938 2.441406,-0.25 2.671875,-0.3125 l 0.0625,0.25 c -0.1875,0.0429687 -0.355469,0.0703125 -0.5,0.09375 -0.148437,0.0195313 -0.3125,0.03125 -0.5,0.03125 -0.25,0 -0.464844,-0.0390625 -0.640625,-0.109375 C 0.914063,-0.128906 0.769531,-0.238281 0.65625,-0.375 0.539063,-0.507813 0.457031,-0.671875 0.40625,-0.859375 0.363281,-1.054688 0.34375,-1.269531 0.34375,-1.5 Z m 0,0"
           style="stroke:none"
           inkscape:connector-curvature="0" />
      </symbol>
      <symbol
         id="glyph1-15"
         overflow="visible"
         style="overflow:visible">
        <path
           id="path136"
           d="m 0.671875,-1.484375 c 0,0.1875 0.015625,0.367187 0.046875,0.53125 0.039063,0.15625 0.109375,0.292969 0.203125,0.40625 0.09375,0.105469 0.210938,0.195312 0.359375,0.265625 0.144531,0.0625 0.328125,0.09375 0.546875,0.09375 0.15625,0 0.304688,-0.003906 0.453125,-0.015625 C 2.4375,-0.222656 2.597656,-0.257813 2.765625,-0.3125 l 0.03125,0.25 c -0.179687,0.0429687 -0.34375,0.0703125 -0.5,0.09375 C 2.148438,0.0507813 1.976563,0.0625 1.78125,0.0625 1.519531,0.0625 1.296875,0.0234375 1.109375,-0.046875 0.921875,-0.128906 0.769531,-0.238281 0.65625,-0.375 0.539063,-0.507813 0.457031,-0.671875 0.40625,-0.859375 0.363281,-1.054688 0.34375,-1.269531 0.34375,-1.5 c 0,-0.226563 0.019531,-0.4375 0.0625,-0.625 0.050781,-0.1875 0.132813,-0.347656 0.25,-0.484375 0.113281,-0.144531 0.257813,-0.253906 0.4375,-0.328125 0.175781,-0.082031 0.390625,-0.125 0.640625,-0.125 0.238281,0 0.429688,0.039062 0.578125,0.109375 0.144531,0.074219 0.257813,0.167969 0.34375,0.28125 0.09375,0.105469 0.148438,0.226562 0.171875,0.359375 0.03125,0.125 0.046875,0.25 0.046875,0.375 0,0.15625 -0.015625,0.308594 -0.046875,0.453125 z M 1.71875,-2.8125 c -0.1875,0 -0.351562,0.03125 -0.484375,0.09375 -0.125,0.054687 -0.230469,0.132812 -0.3125,0.234375 -0.085937,0.105469 -0.148437,0.226562 -0.1875,0.359375 -0.03125,0.136719 -0.054687,0.28125 -0.0625,0.4375 h 1.875 c 0.03125,-0.132813 0.039063,-0.265625 0.03125,-0.390625 -0.011719,-0.09375 -0.03125,-0.1875 -0.0625,-0.28125 C 2.484375,-2.453125 2.429688,-2.53125 2.359375,-2.59375 2.296875,-2.664063 2.210938,-2.71875 2.109375,-2.75 2.003906,-2.789063 1.875,-2.8125 1.71875,-2.8125 Z m 0,0"
           style="stroke:none"
           inkscape:connector-curvature="0" />
      </symbol>
      <symbol
         id="glyph1-16"
         overflow="visible"
         style="overflow:visible">
        <path
           id="path139"
           d="m 0.40625,-2.0625 c 0,-0.28125 0.019531,-0.546875 0.0625,-0.796875 0.050781,-0.25 0.132813,-0.46875 0.25,-0.65625 0.125,-0.195313 0.296875,-0.347656 0.515625,-0.453125 0.21875,-0.113281 0.492188,-0.171875 0.828125,-0.171875 0.226563,0 0.453125,0.015625 0.671875,0.046875 0.21875,0.03125 0.445313,0.085937 0.6875,0.15625 L 3.34375,-3.671875 C 3.195313,-3.703125 3.0625,-3.726563 2.9375,-3.75 2.820313,-3.78125 2.71875,-3.800781 2.625,-3.8125 2.53125,-3.832031 2.4375,-3.84375 2.34375,-3.84375 c -0.085937,-0.00781 -0.167969,-0.015625 -0.25,-0.015625 -0.28125,0 -0.511719,0.054687 -0.6875,0.15625 C 1.226563,-3.609375 1.085938,-3.476563 0.984375,-3.3125 0.890625,-3.144531 0.820313,-2.953125 0.78125,-2.734375 0.75,-2.523438 0.734375,-2.300781 0.734375,-2.0625 c 0,0.242187 0.015625,0.476562 0.046875,0.703125 0.039063,0.21875 0.109375,0.417969 0.203125,0.59375 0.101563,0.167969 0.242188,0.304687 0.421875,0.40625 0.175781,0.09375 0.40625,0.140625 0.6875,0.140625 0.082031,0 0.164063,0 0.25,0 C 2.4375,-0.226563 2.53125,-0.238281 2.625,-0.25 2.71875,-0.269531 2.820313,-0.289063 2.9375,-0.3125 3.0625,-0.332031 3.195313,-0.363281 3.34375,-0.40625 L 3.421875,-0.125 C 3.179688,-0.0625 2.953125,-0.015625 2.734375,0.015625 2.515625,0.046875 2.289063,0.0625 2.0625,0.0625 1.726563,0.0625 1.453125,0.00390625 1.234375,-0.109375 1.015625,-0.222656 0.84375,-0.375 0.71875,-0.5625 0.601563,-0.757813 0.519531,-0.984375 0.46875,-1.234375 0.425781,-1.492188 0.40625,-1.769531 0.40625,-2.0625 Z m 0,0"
           style="stroke:none"
           inkscape:connector-curvature="0" />
      </symbol>
      <symbol
         id="glyph1-17"
         overflow="visible"
         style="overflow:visible">
        <path
           id="path142"
           d="M 0.640625,-2.765625 H 0.15625 V -2.96875 L 0.640625,-3 0.6875,-3.84375 h 0.25 V -3 H 1.875 v 0.234375 H 0.9375 V -0.9375 c 0,0.125 0.007813,0.234375 0.03125,0.328125 0.019531,0.09375 0.050781,0.171875 0.09375,0.234375 0.039063,0.0625 0.097656,0.109375 0.171875,0.140625 0.082031,0.03125 0.179688,0.046875 0.296875,0.046875 0.050781,0 0.101563,0 0.15625,0 0.050781,-0.007813 0.113281,-0.019531 0.1875,-0.03125 l 0.03125,0.25 C 1.832031,0.0390625 1.75,0.046875 1.65625,0.046875 1.570313,0.0546875 1.5,0.0625 1.4375,0.0625 c -0.273437,0 -0.476562,-0.06640625 -0.609375,-0.203125 -0.125,-0.132813 -0.1875,-0.382813 -0.1875,-0.75 z m 0,0"
           style="stroke:none"
           inkscape:connector-curvature="0" />
      </symbol>
      <symbol
         id="glyph1-18"
         overflow="visible"
         style="overflow:visible">
        <path
           id="path145"
           d="M 0.703125,-3 V 0 H 0.40625 v -3 z m 0,-1.078125 V -3.40625 H 0.40625 v -0.671875 z m 0,0"
           style="stroke:none"
           inkscape:connector-curvature="0" />
      </symbol>
      <symbol
         id="glyph1-19"
         overflow="visible"
         style="overflow:visible">
        <path
           id="path148"
           d="M 2.859375,-1.140625 H 1.03125 L 0.625,0 H 0.28125 l 1.5,-4.109375 H 2.171875 L 3.609375,0 h -0.34375 z m -0.90625,-2.578125 -0.84375,2.296875 h 1.6875 L 1.96875,-3.71875 Z m 0,0"
           style="stroke:none"
           inkscape:connector-curvature="0" />
      </symbol>
      <symbol
         id="glyph1-20"
         overflow="visible"
         style="overflow:visible">
        <path
           id="path151"
           d="M 0.9375,-3 H 1.75 v 0.234375 H 0.9375 V 0 H 0.640625 V -2.765625 H 0.15625 V -2.96875 L 0.640625,-3 v -0.4375 c 0,-0.28125 0.0625,-0.476563 0.1875,-0.59375 0.125,-0.113281 0.328125,-0.171875 0.609375,-0.171875 0.0625,0 0.128906,0.00781 0.203125,0.015625 0.082031,0.011719 0.160156,0.023437 0.234375,0.03125 L 1.84375,-3.921875 C 1.769531,-3.929688 1.707031,-3.9375 1.65625,-3.9375 1.601563,-3.945313 1.550781,-3.953125 1.5,-3.953125 c -0.210937,0 -0.355469,0.042969 -0.4375,0.125 -0.085937,0.085937 -0.125,0.226562 -0.125,0.421875 z m 0,0"
           style="stroke:none"
           inkscape:connector-curvature="0" />
      </symbol>
      <symbol
         id="glyph1-21"
         overflow="visible"
         style="overflow:visible">
        <path
           id="path154"
           d="M 1.84375,-3.796875 V 0 h -0.3125 v -3.796875 h -1.1875 v -0.28125 h 2.671875 v 0.28125 z m 0,0"
           style="stroke:none"
           inkscape:connector-curvature="0" />
      </symbol>
      <symbol
         id="glyph1-22"
         overflow="visible"
         style="overflow:visible">
        <path
           id="path157"
           d="M 0.703125,0 H 0.40625 v -3 h 0.296875 v 0.453125 H 0.71875 c 0.0625,-0.0625 0.128906,-0.125 0.203125,-0.1875 0.070313,-0.0625 0.148438,-0.113281 0.234375,-0.15625 0.082031,-0.050781 0.171875,-0.09375 0.265625,-0.125 0.101563,-0.03125 0.207031,-0.046875 0.3125,-0.046875 0.457031,0 0.738281,0.183594 0.84375,0.546875 0.0625,-0.0625 0.132813,-0.125 0.21875,-0.1875 0.082031,-0.070313 0.171875,-0.132813 0.265625,-0.1875 0.09375,-0.050781 0.191406,-0.09375 0.296875,-0.125 0.101563,-0.03125 0.207031,-0.046875 0.3125,-0.046875 0.601563,0 0.90625,0.328125 0.90625,0.984375 V 0 h -0.3125 v -2.015625 c 0,-0.113281 -0.011719,-0.21875 -0.03125,-0.3125 -0.023437,-0.09375 -0.0625,-0.175781 -0.125,-0.25 -0.054687,-0.070313 -0.125,-0.125 -0.21875,-0.15625 -0.09375,-0.039063 -0.210937,-0.0625 -0.34375,-0.0625 -0.09375,0 -0.1875,0.015625 -0.28125,0.046875 -0.085937,0.03125 -0.167969,0.074219 -0.25,0.125 -0.085937,0.042969 -0.164062,0.089844 -0.234375,0.140625 -0.0625,0.054687 -0.121094,0.105469 -0.171875,0.15625 0.00781,0.042969 0.015625,0.09375 0.015625,0.15625 0.00781,0.054687 0.015625,0.105469 0.015625,0.15625 V 0 H 2.34375 v -2.03125 c 0,-0.113281 -0.015625,-0.210938 -0.046875,-0.296875 -0.023437,-0.09375 -0.0625,-0.175781 -0.125,-0.25 -0.054687,-0.070313 -0.125,-0.125 -0.21875,-0.15625 -0.085937,-0.039063 -0.195312,-0.0625 -0.328125,-0.0625 -0.105469,0 -0.203125,0.015625 -0.296875,0.046875 -0.085937,0.023437 -0.164062,0.058594 -0.234375,0.109375 -0.074219,0.042969 -0.148437,0.09375 -0.21875,0.15625 -0.0625,0.054687 -0.121094,0.101562 -0.171875,0.140625 z m 0,0"
           style="stroke:none"
           inkscape:connector-curvature="0" />
      </symbol>
      <symbol
         id="glyph1-23"
         overflow="visible"
         style="overflow:visible">
        <path
           id="path160"
           d="M 0.421875,0.78125 0.515625,0 H 0.40625 V -0.6875 H 0.703125 V 0 l -0.15625,0.78125 z m 0,0"
           style="stroke:none"
           inkscape:connector-curvature="0" />
      </symbol>
      <symbol
         id="glyph1-24"
         overflow="visible"
         style="overflow:visible">
        <path
           id="path163"
           d="M 2.859375,-3.796875 H 0.78125 v 1.65625 h 1.8125 v 0.28125 H 0.78125 V 0 h -0.3125 v -4.078125 h 2.390625 z m 0,0"
           style="stroke:none"
           inkscape:connector-curvature="0" />
      </symbol>
      <symbol
         id="glyph1-25"
         overflow="visible"
         style="overflow:visible">
        <path
           id="path166"
           d="M 0.40625,-4.203125 H 0.703125 V 0 H 0.40625 Z m 0,0"
           style="stroke:none"
           inkscape:connector-curvature="0" />
      </symbol>
      <symbol
         id="glyph1-26"
         overflow="visible"
         style="overflow:visible">
        <path
           id="path169"
           d="m 1.5625,-3.859375 c -0.167969,0 -0.335937,0.023437 -0.5,0.0625 C 0.90625,-3.765625 0.71875,-3.695313 0.5,-3.59375 l -0.09375,-0.25 C 0.601563,-3.9375 0.796875,-4.007813 0.984375,-4.0625 1.171875,-4.113281 1.382813,-4.140625 1.625,-4.140625 c 0.207031,0 0.382813,0.039062 0.53125,0.109375 0.15625,0.0625 0.28125,0.152344 0.375,0.265625 0.101563,0.105469 0.175781,0.230469 0.21875,0.375 0.050781,0.136719 0.078125,0.28125 0.078125,0.4375 0,0.429687 -0.164062,0.859375 -0.484375,1.296875 -0.324219,0.429687 -0.828125,0.886719 -1.515625,1.375 v 0.015625 h 2.0625 V 0 H 0.40625 V -0.3125 C 0.863281,-0.625 1.234375,-0.910156 1.515625,-1.171875 1.796875,-1.441406 2.007813,-1.679688 2.15625,-1.890625 2.300781,-2.097656 2.394531,-2.285156 2.4375,-2.453125 2.488281,-2.617188 2.515625,-2.757813 2.515625,-2.875 2.515625,-3.09375 2.476563,-3.265625 2.40625,-3.390625 2.332031,-3.523438 2.242188,-3.625 2.140625,-3.6875 2.035156,-3.757813 1.929688,-3.804688 1.828125,-3.828125 1.722656,-3.847656 1.632813,-3.859375 1.5625,-3.859375 Z m 0,0"
           style="stroke:none"
           inkscape:connector-curvature="0" />
      </symbol>
      <symbol
         id="glyph1-27"
         overflow="visible"
         style="overflow:visible">
        <path
           id="path172"
           d="m 1.765625,-3.875 c -0.210937,0 -0.386719,0.054687 -0.53125,0.15625 C 1.097656,-3.625 0.988281,-3.492188 0.90625,-3.328125 0.832031,-3.160156 0.78125,-2.96875 0.75,-2.75 c -0.023437,0.21875 -0.03125,0.449219 -0.03125,0.6875 0,0.230469 0.007813,0.460937 0.03125,0.6875 0.03125,0.21875 0.082031,0.417969 0.15625,0.59375 0.082031,0.179687 0.191406,0.324219 0.328125,0.4375 0.144531,0.105469 0.320313,0.15625 0.53125,0.15625 0.21875,0 0.394531,-0.050781 0.53125,-0.15625 0.132813,-0.113281 0.238281,-0.257813 0.3125,-0.4375 0.082031,-0.175781 0.132813,-0.375 0.15625,-0.59375 C 2.796875,-1.601563 2.8125,-1.832031 2.8125,-2.0625 2.8125,-2.300781 2.796875,-2.53125 2.765625,-2.75 2.742188,-2.96875 2.691406,-3.160156 2.609375,-3.328125 2.535156,-3.492188 2.429688,-3.625 2.296875,-3.71875 2.160156,-3.820313 1.984375,-3.875 1.765625,-3.875 Z m 0,3.9375 C 1.492188,0.0625 1.269531,0.00390625 1.09375,-0.109375 0.914063,-0.222656 0.773438,-0.378906 0.671875,-0.578125 0.566406,-0.773438 0.492188,-1 0.453125,-1.25 0.421875,-1.507813 0.40625,-1.78125 0.40625,-2.0625 c 0,-0.28125 0.015625,-0.546875 0.046875,-0.796875 0.039063,-0.25 0.113281,-0.46875 0.21875,-0.65625 0.101563,-0.195313 0.242188,-0.347656 0.421875,-0.453125 0.175781,-0.113281 0.398438,-0.171875 0.671875,-0.171875 0.269531,0 0.492188,0.058594 0.671875,0.171875 0.175781,0.105469 0.316406,0.257812 0.421875,0.453125 0.101563,0.1875 0.171875,0.40625 0.203125,0.65625 0.039063,0.25 0.0625,0.515625 0.0625,0.796875 0,0.28125 -0.023437,0.554687 -0.0625,0.8125 C 3.03125,-1 2.960938,-0.773438 2.859375,-0.578125 2.753906,-0.378906 2.613281,-0.222656 2.4375,-0.109375 2.257813,0.00390625 2.035156,0.0625 1.765625,0.0625 Z m 0,0"
           style="stroke:none"
           inkscape:connector-curvature="0" />
      </symbol>
      <symbol
         id="glyph1-28"
         overflow="visible"
         style="overflow:visible">
        <path
           id="path175"
           d="m 0.28125,-3.078125 -0.09375,-0.25 c 0.238281,-0.125 0.476563,-0.253906 0.71875,-0.390625 0.238281,-0.132813 0.441406,-0.265625 0.609375,-0.390625 h 0.21875 V 0 h -0.3125 v -3.734375 z m 0,0"
           style="stroke:none"
           inkscape:connector-curvature="0" />
      </symbol>
      <symbol
         id="glyph1-29"
         overflow="visible"
         style="overflow:visible">
        <path
           id="path178"
           d="m 1.625,0.0625 c -0.242187,0 -0.453125,-0.0273437 -0.640625,-0.078125 -0.1875,-0.0507813 -0.382812,-0.125 -0.578125,-0.21875 L 0.5,-0.46875 c 0.21875,0.105469 0.410156,0.179687 0.578125,0.21875 0.175781,0.042969 0.351563,0.0625 0.53125,0.0625 0.320313,0 0.582031,-0.09375 0.78125,-0.28125 0.207031,-0.1875 0.3125,-0.453125 0.3125,-0.796875 0,-0.125 -0.015625,-0.242188 -0.046875,-0.359375 C 2.625,-1.75 2.566406,-1.859375 2.484375,-1.953125 2.410156,-2.046875 2.3125,-2.125 2.1875,-2.1875 2.070313,-2.25 1.921875,-2.28125 1.734375,-2.28125 c -0.367187,0 -0.667969,0.167969 -0.90625,0.5 L 0.59375,-1.8125 0.703125,-4.078125 h 2.0625 V -3.8125 H 0.96875 l -0.109375,1.75 H 0.875 C 0.976563,-2.207031 1.113281,-2.320313 1.28125,-2.40625 1.445313,-2.5 1.628906,-2.546875 1.828125,-2.546875 c 0.375,0 0.664063,0.109375 0.875,0.328125 0.207031,0.21875 0.3125,0.527344 0.3125,0.921875 0,0.21875 -0.039062,0.414062 -0.109375,0.578125 C 2.84375,-0.550781 2.75,-0.410156 2.625,-0.296875 2.507813,-0.179688 2.363281,-0.09375 2.1875,-0.03125 2.019531,0.03125 1.832031,0.0625 1.625,0.0625 Z m 0,0"
           style="stroke:none"
           inkscape:connector-curvature="0" />
      </symbol>
      <symbol
         id="glyph1-30"
         overflow="visible"
         style="overflow:visible">
        <path
           id="path181"
           d="M 0.703125,-0.6875 V 0 H 0.40625 v -0.6875 z m 0,-2.078125 V -2.0625 H 0.40625 v -0.703125 z m 0,0"
           style="stroke:none"
           inkscape:connector-curvature="0" />
      </symbol>
      <symbol
         id="glyph1-31"
         overflow="visible"
         style="overflow:visible">
        <path
           id="path184"
           d="M 0.703125,-2.703125 H 0.71875 c 0.113281,-0.101563 0.257813,-0.1875 0.4375,-0.25 0.175781,-0.070313 0.359375,-0.109375 0.546875,-0.109375 0.207031,0 0.382813,0.042969 0.53125,0.125 0.144531,0.085937 0.257813,0.195312 0.34375,0.328125 0.09375,0.136719 0.15625,0.304687 0.1875,0.5 0.039063,0.1875 0.0625,0.390625 0.0625,0.609375 0,0.230469 -0.023437,0.4375 -0.0625,0.625 -0.03125,0.1875 -0.09375,0.351562 -0.1875,0.484375 C 2.484375,-0.253906 2.363281,-0.144531 2.21875,-0.0625 2.070313,0.0195313 1.894531,0.0625 1.6875,0.0625 1.5,0.0625 1.316406,0.03125 1.140625,-0.03125 0.972656,-0.101563 0.832031,-0.191406 0.71875,-0.296875 H 0.703125 v 1.5 H 0.40625 V -3 H 0.703125 Z M 2.515625,-1.5 C 2.515625,-1.675781 2.5,-1.84375 2.46875,-2 2.445313,-2.15625 2.398438,-2.289063 2.328125,-2.40625 2.253906,-2.53125 2.160156,-2.625 2.046875,-2.6875 1.929688,-2.757813 1.785156,-2.796875 1.609375,-2.796875 c -0.105469,0 -0.203125,0.011719 -0.296875,0.03125 C 1.21875,-2.742188 1.128906,-2.71875 1.046875,-2.6875 0.972656,-2.65625 0.90625,-2.617188 0.84375,-2.578125 c -0.054687,0.03125 -0.101562,0.0625 -0.140625,0.09375 v 1.96875 c 0.039063,0.03125 0.085938,0.070312 0.140625,0.109375 0.0625,0.03125 0.128906,0.0625 0.203125,0.09375 0.082031,0.03125 0.171875,0.0625 0.265625,0.09375 0.09375,0.023437 0.191406,0.03125 0.296875,0.03125 0.175781,0 0.320313,-0.035156 0.4375,-0.109375 0.113281,-0.070313 0.207031,-0.164063 0.28125,-0.28125 C 2.398438,-0.703125 2.445313,-0.84375 2.46875,-1 2.5,-1.15625 2.515625,-1.320313 2.515625,-1.5 Z m 0,0"
           style="stroke:none"
           inkscape:connector-curvature="0" />
      </symbol>
      <symbol
         id="glyph1-32"
         overflow="visible"
         style="overflow:visible">
        <path
           id="path187"
           d="m 0.484375,0.4375 c 0,0.175781 0.070313,0.320313 0.21875,0.4375 C 0.859375,0.988281 1.125,1.046875 1.5,1.046875 1.675781,1.046875 1.835938,1.03125 1.984375,1 2.140625,0.96875 2.273438,0.921875 2.390625,0.859375 2.515625,0.804688 2.609375,0.726563 2.671875,0.625 2.734375,0.53125 2.765625,0.425781 2.765625,0.3125 2.765625,0.257813 2.753906,0.207031 2.734375,0.15625 2.722656,0.101563 2.691406,0.0546875 2.640625,0.015625 2.597656,-0.0234375 2.535156,-0.0546875 2.453125,-0.078125 2.367188,-0.0976563 2.269531,-0.113281 2.15625,-0.125 L 0.984375,-0.1875 C 0.847656,-0.09375 0.726563,-0.00390625 0.625,0.078125 0.53125,0.171875 0.484375,0.289063 0.484375,0.4375 Z M 1.59375,-1.265625 c 0.257813,0 0.460938,-0.066406 0.609375,-0.203125 C 2.359375,-1.613281 2.4375,-1.804688 2.4375,-2.046875 2.4375,-2.285156 2.359375,-2.476563 2.203125,-2.625 2.054688,-2.769531 1.851563,-2.84375 1.59375,-2.84375 c -0.304687,0 -0.527344,0.078125 -0.671875,0.234375 -0.136719,0.148437 -0.203125,0.335937 -0.203125,0.5625 0,0.242187 0.070313,0.433594 0.21875,0.578125 0.15625,0.136719 0.375,0.203125 0.65625,0.203125 z M 0.8125,-0.25 C 0.71875,-0.289063 0.65625,-0.347656 0.625,-0.421875 0.59375,-0.492188 0.582031,-0.570313 0.59375,-0.65625 0.601563,-0.75 0.632813,-0.84375 0.6875,-0.9375 c 0.0625,-0.09375 0.144531,-0.175781 0.25,-0.25 v -0.015625 c -0.15625,-0.070313 -0.28125,-0.175781 -0.375,-0.3125 -0.09375,-0.144531 -0.140625,-0.320313 -0.140625,-0.53125 0,-0.3125 0.097656,-0.554688 0.296875,-0.734375 0.207031,-0.1875 0.5,-0.28125 0.875,-0.28125 0.082031,0 0.148438,0.00781 0.203125,0.015625 0.0625,0.011719 0.125,0.027344 0.1875,0.046875 h 1 v 0.203125 h -0.6875 c 0.09375,0.054687 0.164063,0.109375 0.21875,0.171875 0.050781,0.0625 0.09375,0.132812 0.125,0.203125 0.03125,0.0625 0.050781,0.132812 0.0625,0.203125 0.00781,0.0625 0.015625,0.121094 0.015625,0.171875 0,0.167969 -0.03125,0.3125 -0.09375,0.4375 -0.054687,0.125 -0.132812,0.230469 -0.234375,0.3125 C 2.296875,-1.222656 2.175781,-1.164063 2.03125,-1.125 1.894531,-1.082031 1.75,-1.0625 1.59375,-1.0625 c -0.085937,0 -0.171875,-0.00391 -0.265625,-0.015625 -0.09375,-0.019531 -0.167969,-0.039063 -0.21875,-0.0625 C 1.035156,-1.078125 0.976563,-1.007813 0.9375,-0.9375 0.90625,-0.875 0.882813,-0.8125 0.875,-0.75 c -0.011719,0.054687 -0.011719,0.105469 0,0.15625 0.019531,0.042969 0.046875,0.078125 0.078125,0.109375 C 0.992188,-0.453125 1.050781,-0.4375 1.125,-0.4375 L 2.25,-0.375 c 0.320313,0.023437 0.539063,0.089844 0.65625,0.203125 0.125,0.1171875 0.1875,0.2578125 0.1875,0.4375 0,0.300781 -0.136719,0.539063 -0.40625,0.71875 -0.273437,0.1875 -0.699219,0.28125 -1.28125,0.28125 -0.367187,0 -0.652344,-0.0625 -0.859375,-0.1875 -0.210937,-0.125 -0.3125,-0.324219 -0.3125,-0.59375 0,-0.148437 0.046875,-0.277344 0.140625,-0.390625 0.09375,-0.1132813 0.238281,-0.222656 0.4375,-0.328125 z m 0,0"
           style="stroke:none"
           inkscape:connector-curvature="0" />
      </symbol>
      <symbol
         id="glyph1-33"
         overflow="visible"
         style="overflow:visible">
        <path
           id="path190"
           d="M 2.28125,-1.40625 V -3.6875 H 2.265625 C 2.066406,-3.269531 1.820313,-2.867188 1.53125,-2.484375 1.25,-2.109375 0.957031,-1.75 0.65625,-1.40625 Z M 2.578125,-4.078125 V -1.40625 H 3.1875 v 0.25 H 2.578125 V 0 H 2.28125 v -1.15625 h -1.9375 v -0.25 C 0.507813,-1.59375 0.675781,-1.789063 0.84375,-2 1.019531,-2.207031 1.191406,-2.425781 1.359375,-2.65625 1.523438,-2.882813 1.675781,-3.117188 1.8125,-3.359375 1.957031,-3.597656 2.085938,-3.835938 2.203125,-4.078125 Z m 0,0"
           style="stroke:none"
           inkscape:connector-curvature="0" />
      </symbol>
      <symbol
         id="glyph1-34"
         overflow="visible"
         style="overflow:visible">
        <path
           id="path193"
           d="m 2.59375,-1.71875 v 0.25 h -2.1875 v -0.25 z m 0,0"
           style="stroke:none"
           inkscape:connector-curvature="0" />
      </symbol>
      <symbol
         id="glyph1-35"
         overflow="visible"
         style="overflow:visible">
        <path
           id="path196"
           d="m 2.0625,-2.140625 c 0.144531,0.0625 0.28125,0.132812 0.40625,0.203125 0.132813,0.0625 0.25,0.136719 0.34375,0.21875 0.101563,0.085937 0.179688,0.183594 0.234375,0.296875 0.050781,0.117187 0.078125,0.246094 0.078125,0.390625 0,0.34375 -0.121094,0.617187 -0.359375,0.8125 -0.230469,0.1875 -0.5625,0.28125 -1,0.28125 C 1.328125,0.0625 0.988281,-0.03125 0.75,-0.21875 0.519531,-0.414063 0.40625,-0.675781 0.40625,-1 c 0,-0.144531 0.023438,-0.273438 0.078125,-0.390625 0.0625,-0.125 0.140625,-0.226563 0.234375,-0.3125 C 0.820313,-1.796875 0.9375,-1.875 1.0625,-1.9375 1.195313,-2 1.332031,-2.054688 1.46875,-2.109375 V -2.125 C 1.332031,-2.164063 1.207031,-2.21875 1.09375,-2.28125 0.976563,-2.34375 0.878906,-2.414063 0.796875,-2.5 0.710938,-2.582031 0.644531,-2.675781 0.59375,-2.78125 0.539063,-2.882813 0.515625,-3.003906 0.515625,-3.140625 c 0,-0.15625 0.03125,-0.296875 0.09375,-0.421875 0.0625,-0.125 0.144531,-0.226563 0.25,-0.3125 0.113281,-0.082031 0.25,-0.144531 0.40625,-0.1875 0.15625,-0.050781 0.328125,-0.078125 0.515625,-0.078125 0.175781,0 0.34375,0.027344 0.5,0.078125 0.15625,0.042969 0.285156,0.105469 0.390625,0.1875 0.101563,0.085937 0.1875,0.1875 0.25,0.3125 0.0625,0.117187 0.09375,0.25 0.09375,0.40625 0,0.136719 -0.027344,0.257812 -0.078125,0.359375 C 2.894531,-2.703125 2.832031,-2.613281 2.75,-2.53125 2.664063,-2.457031 2.566406,-2.390625 2.453125,-2.328125 2.335938,-2.265625 2.207031,-2.207031 2.0625,-2.15625 Z M 0.71875,-1.03125 c 0,0.117187 0.015625,0.226562 0.046875,0.328125 0.039063,0.105469 0.097656,0.199219 0.171875,0.28125 0.082031,0.074219 0.191406,0.136719 0.328125,0.1875 0.132813,0.042969 0.304688,0.0625 0.515625,0.0625 0.1875,0 0.347656,-0.019531 0.484375,-0.0625 0.144531,-0.050781 0.253906,-0.113281 0.328125,-0.1875 0.082031,-0.082031 0.140625,-0.171875 0.171875,-0.265625 0.039063,-0.101563 0.0625,-0.207031 0.0625,-0.3125 0,-0.144531 -0.039062,-0.269531 -0.109375,-0.375 -0.0625,-0.101563 -0.148437,-0.191406 -0.25,-0.265625 -0.105469,-0.070313 -0.226562,-0.132813 -0.359375,-0.1875 -0.125,-0.0625 -0.25,-0.113281 -0.375,-0.15625 -0.125,0.042969 -0.25,0.089844 -0.375,0.140625 C 1.234375,-1.789063 1.125,-1.722656 1.03125,-1.640625 0.9375,-1.566406 0.859375,-1.476563 0.796875,-1.375 0.742188,-1.28125 0.71875,-1.164063 0.71875,-1.03125 Z m 1.046875,-2.875 c -0.085937,0 -0.183594,0.011719 -0.296875,0.03125 -0.105469,0.023437 -0.210937,0.0625 -0.3125,0.125 -0.09375,0.054687 -0.171875,0.132812 -0.234375,0.234375 -0.0625,0.09375 -0.09375,0.21875 -0.09375,0.375 0,0.117187 0.023438,0.21875 0.078125,0.3125 0.050781,0.09375 0.117188,0.179687 0.203125,0.25 0.082031,0.0625 0.179688,0.121094 0.296875,0.171875 0.125,0.054687 0.253906,0.101562 0.390625,0.140625 0.125,-0.039063 0.242188,-0.085938 0.359375,-0.140625 C 2.269531,-2.457031 2.363281,-2.515625 2.4375,-2.578125 2.519531,-2.648438 2.585938,-2.726563 2.640625,-2.8125 2.691406,-2.90625 2.71875,-3.007813 2.71875,-3.125 2.71875,-3.28125 2.679688,-3.410156 2.609375,-3.515625 2.546875,-3.617188 2.460938,-3.695313 2.359375,-3.75 2.265625,-3.8125 2.160156,-3.851563 2.046875,-3.875 1.941406,-3.894531 1.847656,-3.90625 1.765625,-3.90625 Z m 0,0"
           style="stroke:none"
           inkscape:connector-curvature="0" />
      </symbol>
      <symbol
         id="glyph1-36"
         overflow="visible"
         style="overflow:visible">
        <path
           id="path199"
           d="m 2.703125,-1.984375 c -0.125,0.1875 -0.28125,0.34375 -0.46875,0.46875 -0.179687,0.117187 -0.375,0.171875 -0.59375,0.171875 -0.386719,0 -0.6875,-0.117188 -0.90625,-0.359375 -0.21875,-0.25 -0.328125,-0.601563 -0.328125,-1.0625 0,-0.207031 0.03125,-0.394531 0.09375,-0.5625 0.0625,-0.175781 0.148438,-0.320313 0.265625,-0.4375 0.113281,-0.125 0.242188,-0.21875 0.390625,-0.28125 0.15625,-0.0625 0.320313,-0.09375 0.5,-0.09375 0.269531,0 0.492188,0.054687 0.671875,0.15625 0.175781,0.105469 0.3125,0.246094 0.40625,0.421875 0.101563,0.179687 0.175781,0.375 0.21875,0.59375 0.039063,0.21875 0.0625,0.449219 0.0625,0.6875 0,0.449219 -0.046875,0.824219 -0.140625,1.125 C 2.789063,-0.863281 2.675781,-0.625 2.53125,-0.4375 2.382813,-0.257813 2.210938,-0.128906 2.015625,-0.046875 1.816406,0.0234375 1.609375,0.0625 1.390625,0.0625 1.191406,0.0625 1.03125,0.046875 0.90625,0.015625 c -0.125,-0.03125 -0.25,-0.0625 -0.375,-0.09375 L 0.578125,-0.3125 c 0.144531,0.042969 0.273438,0.074219 0.390625,0.09375 0.125,0.023437 0.253906,0.03125 0.390625,0.03125 0.1875,0 0.347656,-0.03125 0.484375,-0.09375 0.144531,-0.0625 0.265625,-0.140625 0.359375,-0.234375 0.101563,-0.101563 0.1875,-0.21875 0.25,-0.34375 C 2.515625,-0.992188 2.5625,-1.125 2.59375,-1.25 2.632813,-1.382813 2.660156,-1.515625 2.671875,-1.640625 2.691406,-1.765625 2.707031,-1.875 2.71875,-1.96875 Z M 2.6875,-2.25 C 2.695313,-2.457031 2.691406,-2.660156 2.671875,-2.859375 2.648438,-3.054688 2.601563,-3.226563 2.53125,-3.375 2.457031,-3.53125 2.351563,-3.648438 2.21875,-3.734375 2.082031,-3.828125 1.90625,-3.875 1.6875,-3.875 c -0.125,0 -0.25,0.027344 -0.375,0.078125 C 1.195313,-3.753906 1.09375,-3.6875 1,-3.59375 0.914063,-3.5 0.847656,-3.378906 0.796875,-3.234375 0.742188,-3.097656 0.71875,-2.941406 0.71875,-2.765625 c 0,0.125 0.007813,0.257812 0.03125,0.390625 0.03125,0.136719 0.082031,0.261719 0.15625,0.375 0.070313,0.117187 0.171875,0.210937 0.296875,0.28125 0.132813,0.074219 0.304688,0.109375 0.515625,0.109375 0.195313,0 0.378906,-0.0625 0.546875,-0.1875 C 2.429688,-1.921875 2.570313,-2.070313 2.6875,-2.25 Z m 0,0"
           style="stroke:none"
           inkscape:connector-curvature="0" />
      </symbol>
      <symbol
         id="glyph1-37"
         overflow="visible"
         style="overflow:visible">
        <path
           id="path202"
           d="m 0.71875,-2.09375 c 0.125,-0.1875 0.273438,-0.335938 0.453125,-0.453125 0.1875,-0.125 0.390625,-0.1875 0.609375,-0.1875 0.382813,0 0.6875,0.125 0.90625,0.375 0.21875,0.242187 0.328125,0.589844 0.328125,1.046875 0,0.210937 -0.039062,0.402344 -0.109375,0.578125 -0.0625,0.167969 -0.152344,0.3125 -0.265625,0.4375 C 2.535156,-0.179688 2.40625,-0.09375 2.25,-0.03125 2.09375,0.03125 1.929688,0.0625 1.765625,0.0625 c -0.28125,0 -0.511719,-0.0546875 -0.6875,-0.15625 -0.167969,-0.101563 -0.304687,-0.242188 -0.40625,-0.421875 -0.105469,-0.175781 -0.179687,-0.375 -0.21875,-0.59375 -0.03125,-0.226563 -0.046875,-0.457031 -0.046875,-0.6875 0,-0.445313 0.039063,-0.816406 0.125,-1.109375 0.082031,-0.300781 0.195313,-0.539063 0.34375,-0.71875 0.15625,-0.1875 0.332031,-0.316406 0.53125,-0.390625 0.195313,-0.082031 0.40625,-0.125 0.625,-0.125 0.195313,0 0.359375,0.015625 0.484375,0.046875 0.125,0.023437 0.25,0.054687 0.375,0.09375 L 2.84375,-3.765625 C 2.695313,-3.804688 2.5625,-3.832031 2.4375,-3.84375 2.320313,-3.863281 2.195313,-3.875 2.0625,-3.875 c -0.1875,0 -0.355469,0.03125 -0.5,0.09375 -0.136719,0.054687 -0.257812,0.132812 -0.359375,0.234375 -0.09375,0.105469 -0.171875,0.21875 -0.234375,0.34375 -0.0625,0.125 -0.117187,0.257812 -0.15625,0.390625 -0.042969,0.136719 -0.074219,0.265625 -0.09375,0.390625 -0.011719,0.117187 -0.015625,0.226562 -0.015625,0.328125 z m 0,0.265625 c 0,0.210937 0.007813,0.414062 0.03125,0.609375 0.019531,0.199219 0.066406,0.375 0.140625,0.53125 0.070313,0.148437 0.175781,0.265625 0.3125,0.359375 0.132813,0.09375 0.3125,0.140625 0.53125,0.140625 0.125,0 0.242188,-0.023438 0.359375,-0.078125 0.125,-0.050781 0.226563,-0.125 0.3125,-0.21875 C 2.5,-0.578125 2.570313,-0.691406 2.625,-0.828125 2.675781,-0.972656 2.703125,-1.132813 2.703125,-1.3125 2.703125,-1.4375 2.6875,-1.566406 2.65625,-1.703125 2.625,-1.835938 2.570313,-1.960938 2.5,-2.078125 2.4375,-2.191406 2.335938,-2.285156 2.203125,-2.359375 c -0.125,-0.070313 -0.292969,-0.109375 -0.5,-0.109375 -0.210937,0 -0.398437,0.0625 -0.5625,0.1875 -0.15625,0.125 -0.296875,0.277344 -0.421875,0.453125 z m 0,0"
           style="stroke:none"
           inkscape:connector-curvature="0" />
      </symbol>
      <symbol
         id="glyph1-38"
         overflow="visible"
         style="overflow:visible">
        <path
           id="path205"
           d="M 2.328125,-3.8125 H 0.34375 v -0.265625 h 2.3125 v 0.21875 C 2.5,-3.597656 2.335938,-3.316406 2.171875,-3.015625 2.003906,-2.722656 1.84375,-2.410156 1.6875,-2.078125 1.539063,-1.742188 1.410156,-1.398438 1.296875,-1.046875 1.179688,-0.703125 1.09375,-0.351563 1.03125,0 H 0.703125 C 0.742188,-0.300781 0.820313,-0.625 0.9375,-0.96875 1.050781,-1.3125 1.1875,-1.648438 1.34375,-1.984375 1.5,-2.328125 1.660156,-2.65625 1.828125,-2.96875 c 0.175781,-0.3125 0.34375,-0.585938 0.5,-0.828125 z m 0,0"
           style="stroke:none"
           inkscape:connector-curvature="0" />
      </symbol>
      <symbol
         id="glyph1-39"
         overflow="visible"
         style="overflow:visible">
        <path
           id="path208"
           d="M 1.5,0.03125 0.328125,-3 h 0.34375 L 1.6875,-0.328125 2.703125,-3 H 3.03125 L 1.859375,0.03125 Z m 0,0"
           style="stroke:none"
           inkscape:connector-curvature="0" />
      </symbol>
      <symbol
         id="glyph1-40"
         overflow="visible"
         style="overflow:visible">
        <path
           id="path211"
           d="M 2.46875,-0.296875 H 2.453125 C 2.335938,-0.191406 2.191406,-0.101563 2.015625,-0.03125 1.847656,0.03125 1.664063,0.0625 1.46875,0.0625 1.257813,0.0625 1.082031,0.0195313 0.9375,-0.0625 0.789063,-0.144531 0.671875,-0.253906 0.578125,-0.390625 0.492188,-0.523438 0.429688,-0.6875 0.390625,-0.875 0.359375,-1.0625 0.34375,-1.269531 0.34375,-1.5 c 0,-0.21875 0.019531,-0.421875 0.0625,-0.609375 0.039063,-0.195313 0.101563,-0.363281 0.1875,-0.5 0.09375,-0.132813 0.207031,-0.242188 0.34375,-0.328125 0.144531,-0.082031 0.328125,-0.125 0.546875,-0.125 0.1875,0 0.363281,0.039062 0.53125,0.109375 0.175781,0.0625 0.320313,0.148437 0.4375,0.25 H 2.46875 v -1.5 H 2.765625 V 0 H 2.46875 Z M 0.65625,-1.5 c 0,0.179687 0.015625,0.34375 0.046875,0.5 0.03125,0.15625 0.078125,0.296875 0.140625,0.421875 0.070313,0.117187 0.164063,0.210937 0.28125,0.28125 0.125,0.074219 0.273438,0.109375 0.453125,0.109375 0.09375,0 0.1875,-0.007813 0.28125,-0.03125 0.09375,-0.03125 0.175781,-0.0625 0.25,-0.09375 0.082031,-0.03125 0.15625,-0.0625 0.21875,-0.09375 0.0625,-0.039063 0.109375,-0.078125 0.140625,-0.109375 v -1.96875 C 2.4375,-2.515625 2.390625,-2.546875 2.328125,-2.578125 2.265625,-2.617188 2.191406,-2.65625 2.109375,-2.6875 c -0.074219,-0.03125 -0.15625,-0.054688 -0.25,-0.078125 -0.09375,-0.019531 -0.1875,-0.03125 -0.28125,-0.03125 C 1.398438,-2.796875 1.25,-2.757813 1.125,-2.6875 1.007813,-2.625 0.914063,-2.53125 0.84375,-2.40625 0.78125,-2.289063 0.734375,-2.15625 0.703125,-2 0.671875,-1.84375 0.65625,-1.675781 0.65625,-1.5 Z m 0,0"
           style="stroke:none"
           inkscape:connector-curvature="0" />
      </symbol>
      <symbol
         id="glyph1-41"
         overflow="visible"
         style="overflow:visible">
        <path
           id="path214"
           d="m 0.328125,-3 h 0.34375 L 1.71875,-0.28125 H 1.734375 L 2.703125,-3 H 3.03125 L 1.828125,0.265625 c -0.125,0.34375 -0.277344,0.59375 -0.453125,0.75 C 1.207031,1.179688 1,1.265625 0.75,1.265625 0.6875,1.265625 0.625,1.257813 0.5625,1.25 0.5,1.238281 0.441406,1.226563 0.390625,1.21875 l 0.03125,-0.25 C 0.472656,0.976563 0.519531,0.984375 0.5625,0.984375 0.601563,0.992188 0.644531,1 0.6875,1 0.8125,1 0.921875,0.96875 1.015625,0.90625 1.109375,0.84375 1.1875,0.765625 1.25,0.671875 1.320313,0.585938 1.378906,0.488281 1.421875,0.375 1.472656,0.269531 1.515625,0.171875 1.546875,0.078125 Z m 0,0"
           style="stroke:none"
           inkscape:connector-curvature="0" />
      </symbol>
      <symbol
         id="glyph1-42"
         overflow="visible"
         style="overflow:visible">
        <path
           id="path217"
           d="M 0.703125,-2.703125 H 0.71875 c 0.113281,-0.101563 0.257813,-0.1875 0.4375,-0.25 0.175781,-0.070313 0.359375,-0.109375 0.546875,-0.109375 0.207031,0 0.382813,0.042969 0.53125,0.125 0.144531,0.085937 0.257813,0.195312 0.34375,0.328125 0.09375,0.136719 0.15625,0.304687 0.1875,0.5 0.039063,0.1875 0.0625,0.390625 0.0625,0.609375 0,0.230469 -0.023437,0.4375 -0.0625,0.625 -0.03125,0.1875 -0.09375,0.351562 -0.1875,0.484375 C 2.484375,-0.253906 2.363281,-0.144531 2.21875,-0.0625 2.070313,0.0195313 1.894531,0.0625 1.6875,0.0625 1.5,0.0625 1.316406,0.03125 1.140625,-0.03125 0.960938,-0.101563 0.816406,-0.191406 0.703125,-0.296875 H 0.6875 L 0.640625,0 H 0.40625 V -4.203125 H 0.703125 Z M 2.515625,-1.5 C 2.515625,-1.675781 2.5,-1.84375 2.46875,-2 2.445313,-2.15625 2.398438,-2.289063 2.328125,-2.40625 2.253906,-2.53125 2.160156,-2.625 2.046875,-2.6875 1.929688,-2.757813 1.785156,-2.796875 1.609375,-2.796875 c -0.105469,0 -0.203125,0.011719 -0.296875,0.03125 C 1.21875,-2.742188 1.128906,-2.71875 1.046875,-2.6875 0.972656,-2.65625 0.90625,-2.617188 0.84375,-2.578125 c -0.054687,0.03125 -0.101562,0.0625 -0.140625,0.09375 v 1.96875 c 0.039063,0.03125 0.085938,0.070312 0.140625,0.109375 0.0625,0.03125 0.128906,0.0625 0.203125,0.09375 0.082031,0.03125 0.171875,0.0625 0.265625,0.09375 0.09375,0.023437 0.191406,0.03125 0.296875,0.03125 0.175781,0 0.320313,-0.035156 0.4375,-0.109375 0.113281,-0.070313 0.207031,-0.164063 0.28125,-0.28125 C 2.398438,-0.703125 2.445313,-0.84375 2.46875,-1 2.5,-1.15625 2.515625,-1.320313 2.515625,-1.5 Z m 0,0"
           style="stroke:none"
           inkscape:connector-curvature="0" />
      </symbol>
      <symbol
         id="glyph1-43"
         overflow="visible"
         style="overflow:visible">
        <path
           id="path220"
           d="M 0.9375,0.5 C 0.9375,0.78125 0.875,0.976563 0.75,1.09375 0.632813,1.207031 0.4375,1.265625 0.15625,1.265625 0.0820313,1.265625 0.0078125,1.257813 -0.0625,1.25 -0.132813,1.238281 -0.207031,1.226563 -0.28125,1.21875 L -0.25,0.984375 C -0.175781,0.992188 -0.113281,1 -0.0625,1 c 0.0546875,0.00781 0.1015625,0.015625 0.15625,0.015625 0.207031,0 0.347656,-0.042969 0.421875,-0.125 0.082031,-0.085937 0.125,-0.226562 0.125,-0.421875 V -3 H 0.9375 Z m 0,-4.578125 V -3.40625 H 0.640625 v -0.671875 z m 0,0"
           style="stroke:none"
           inkscape:connector-curvature="0" />
      </symbol>
      <symbol
         id="glyph1-44"
         overflow="visible"
         style="overflow:visible">
        <path
           id="path223"
           d="M 0.703125,-0.6875 V 0 H 0.40625 v -0.6875 z m 0,0"
           style="stroke:none"
           inkscape:connector-curvature="0" />
      </symbol>
      <symbol
         id="glyph1-45"
         overflow="visible"
         style="overflow:visible">
        <path
           id="path226"
           d="M 3.015625,0 1.921875,-1.71875 H 0.78125 V 0 h -0.3125 v -4.078125 h 1.609375 c 0.195313,0 0.367188,0.03125 0.515625,0.09375 0.144531,0.0625 0.265625,0.152344 0.359375,0.265625 0.101563,0.105469 0.175781,0.230469 0.21875,0.375 C 3.222656,-3.207031 3.25,-3.0625 3.25,-2.90625 3.25,-2.75 3.226563,-2.601563 3.1875,-2.46875 3.144531,-2.34375 3.082031,-2.226563 3,-2.125 c -0.085937,0.09375 -0.1875,0.171875 -0.3125,0.234375 -0.125,0.0625 -0.273437,0.105469 -0.4375,0.125 L 3.390625,0 Z M 0.78125,-2.015625 h 1.234375 c 0.269531,0 0.488281,-0.078125 0.65625,-0.234375 0.175781,-0.15625 0.265625,-0.375 0.265625,-0.65625 0,-0.257813 -0.078125,-0.472656 -0.234375,-0.640625 -0.15625,-0.164063 -0.375,-0.25 -0.65625,-0.25 H 0.78125 Z m 0,0"
           style="stroke:none"
           inkscape:connector-curvature="0" />
      </symbol>
      <symbol
         id="glyph1-46"
         overflow="visible"
         style="overflow:visible">
        <path
           id="path229"
           d="m 0.421875,-2.609375 0.09375,-0.78125 H 0.40625 v -0.6875 h 0.296875 v 0.6875 l -0.15625,0.78125 z m 0,0"
           style="stroke:none"
           inkscape:connector-curvature="0" />
      </symbol>
      <symbol
         id="glyph1-47"
         overflow="visible"
         style="overflow:visible">
        <path
           id="path232"
           d="M 0.78125,-1.796875 V 0 h -0.3125 v -4.078125 h 1.609375 c 0.195313,0 0.367188,0.03125 0.515625,0.09375 0.144531,0.054687 0.265625,0.132812 0.359375,0.234375 0.101563,0.105469 0.175781,0.226562 0.21875,0.359375 C 3.222656,-3.253906 3.25,-3.101563 3.25,-2.9375 c 0,0.34375 -0.101562,0.621094 -0.296875,0.828125 -0.199219,0.210937 -0.492187,0.3125 -0.875,0.3125 z m 0,-0.28125 h 1.265625 c 0.28125,0 0.5,-0.070313 0.65625,-0.21875 C 2.859375,-2.441406 2.9375,-2.65625 2.9375,-2.9375 c 0,-0.257813 -0.078125,-0.46875 -0.234375,-0.625 -0.15625,-0.15625 -0.375,-0.234375 -0.65625,-0.234375 H 0.78125 Z m 0,0"
           style="stroke:none"
           inkscape:connector-curvature="0" />
      </symbol>
      <symbol
         id="glyph1-48"
         overflow="visible"
         style="overflow:visible">
        <path
           id="path235"
           d="m 1.796875,0.0625 c -0.21875,0 -0.449219,-0.015625 -0.6875,-0.046875 C 0.867188,-0.015625 0.632813,-0.0625 0.40625,-0.125 l 0.0625,-0.28125 c 0.289063,0.085937 0.539063,0.136719 0.75,0.15625 0.207031,0.023437 0.398438,0.03125 0.578125,0.03125 0.195313,0 0.363281,-0.023438 0.5,-0.078125 C 2.429688,-0.347656 2.539063,-0.410156 2.625,-0.484375 2.707031,-0.566406 2.765625,-0.65625 2.796875,-0.75 c 0.039063,-0.101563 0.0625,-0.207031 0.0625,-0.3125 0,-0.144531 -0.039062,-0.265625 -0.109375,-0.359375 -0.074219,-0.101563 -0.167969,-0.1875 -0.28125,-0.25 -0.117187,-0.070313 -0.234375,-0.125 -0.359375,-0.15625 C 1.984375,-1.867188 1.867188,-1.90625 1.765625,-1.9375 1.609375,-1.96875 1.453125,-2.015625 1.296875,-2.078125 1.148438,-2.140625 1.015625,-2.21875 0.890625,-2.3125 0.765625,-2.414063 0.660156,-2.53125 0.578125,-2.65625 0.503906,-2.789063 0.46875,-2.945313 0.46875,-3.125 c 0,-0.175781 0.03125,-0.328125 0.09375,-0.453125 0.070313,-0.132813 0.164063,-0.242188 0.28125,-0.328125 0.125,-0.082031 0.265625,-0.140625 0.421875,-0.171875 0.164063,-0.039063 0.34375,-0.0625 0.53125,-0.0625 0.21875,0 0.429688,0.015625 0.640625,0.046875 0.21875,0.03125 0.445313,0.085937 0.6875,0.15625 L 3.046875,-3.671875 C 2.890625,-3.703125 2.753906,-3.726563 2.640625,-3.75 2.523438,-3.78125 2.414063,-3.800781 2.3125,-3.8125 2.21875,-3.832031 2.128906,-3.84375 2.046875,-3.84375 c -0.085937,-0.00781 -0.167969,-0.015625 -0.25,-0.015625 -0.199219,0 -0.359375,0.027344 -0.484375,0.078125 -0.125,0.042969 -0.230469,0.101562 -0.3125,0.171875 -0.074219,0.0625 -0.125,0.136719 -0.15625,0.21875 -0.03125,0.085937 -0.046875,0.179687 -0.046875,0.28125 0,0.148437 0.039063,0.273437 0.125,0.375 0.082031,0.105469 0.179688,0.195312 0.296875,0.265625 0.125,0.0625 0.253906,0.121094 0.390625,0.171875 0.132813,0.042969 0.253906,0.074219 0.359375,0.09375 0.15625,0.042969 0.304688,0.089844 0.453125,0.140625 0.144531,0.054687 0.273438,0.125 0.390625,0.21875 0.113281,0.085937 0.203125,0.1875 0.265625,0.3125 0.070313,0.125 0.109375,0.277344 0.109375,0.453125 0,0.1875 -0.039062,0.355469 -0.109375,0.5 -0.0625,0.136719 -0.15625,0.257812 -0.28125,0.359375 C 2.671875,-0.125 2.523438,-0.0507813 2.359375,0 2.191406,0.0390625 2.003906,0.0625 1.796875,0.0625 Z m 0,0"
           style="stroke:none"
           inkscape:connector-curvature="0" />
      </symbol>
      <symbol
         id="glyph1-49"
         overflow="visible"
         style="overflow:visible">
        <path
           id="path238"
           d="m 2.359375,-2.53125 -0.75,2.5625 H 1.28125 L 0.328125,-3 H 0.65625 l 0.8125,2.671875 H 1.484375 L 2.234375,-3 h 0.28125 l 0.78125,2.671875 H 3.3125 L 4.09375,-3 h 0.3125 L 3.484375,0.03125 H 3.15625 L 2.375,-2.53125 Z m 0,0"
           style="stroke:none"
           inkscape:connector-curvature="0" />
      </symbol>
      <symbol
         id="glyph1-50"
         overflow="visible"
         style="overflow:visible">
        <path
           id="path241"
           d="M 2.5625,-2.765625 0.609375,-0.25 v 0.015625 h 2 V 0 H 0.21875 V -0.21875 L 2.171875,-2.75 V -2.765625 H 0.3125 V -3 h 2.25 z m 0,0"
           style="stroke:none"
           inkscape:connector-curvature="0" />
      </symbol>
    </g>
    <clipPath
       id="clip1">
      <path
         id="path246"
         d="m 558,356 h 49.78125 v 67.78125 H 558 Z m 0,0"
         inkscape:connector-curvature="0" />
    </clipPath>
    <clipPath
       id="clip2">
      <path
         id="path249"
         d="m 557.65234,355.75 h 50.12891 v 68.03125 h -50.12891 z m 0,0"
         inkscape:connector-curvature="0" />
    </clipPath>
  </defs>
  <sodipodi:namedview
     id="base"
     pagecolor="#00ffff"
     bordercolor="#666666"
     borderopacity="1.0"
     inkscape:pageopacity="0"
     inkscape:pageshadow="2"
     inkscape:zoom="0.98994949"
     inkscape:cx="186.78906"
     inkscape:cy="-62.884495"
     inkscape:document-units="px"
     inkscape:current-layer="layer1"
     showgrid="false"
     units="px"
     fit-margin-top="0.5"
     fit-margin-left="0.5"
     fit-margin-right="0.5"
     fit-margin-bottom="0.5"
     inkscape:window-width="1920"
     inkscape:window-height="1001"
     inkscape:window-x="-9"
     inkscape:window-y="-9"
     inkscape:window-maximized="1" />
  <metadata
     id="metadata5">
    <rdf:RDF>
      <cc:Work
         rdf:about="">
        <dc:format>image/svg+xml</dc:format>
        <dc:type
           rdf:resource="http://purl.org/dc/dcmitype/StillImage" />
        <dc:title></dc:title>
      </cc:Work>
    </rdf:RDF>
  </metadata>
  <g
     inkscape:label="Layer 1"
     inkscape:groupmode="layer"
     id="layer1"
     transform="translate(95.588008,-208.08384)">
    <path
       inkscape:connector-curvature="0"
       style="fill:#b89457;fill-opacity:1;fill-rule:nonzero;stroke:none;stroke-width:0.35277778"
       d="m -92.928395,216.67042 -1.001832,4.00734 h -0.523653 l -1.001836,-4.00734 h 0.613227 l 0.653192,3.02342 0.649055,-3.02342 z m 0,0"
       id="path256" />
    <path
       inkscape:connector-curvature="0"
       style="fill:#b89457;fill-opacity:1;fill-rule:nonzero;stroke:none;stroke-width:0.35277778"
       d="m -90.175074,220.67776 h -0.620116 l -0.203951,-0.8034 h -1.094162 l -0.208082,0.8034 h -0.620117 l 1.030771,-4.00734 h 0.701421 z m -1.72806,-1.48966 h 0.757921 l -0.39274,-1.55581 z m 0,0"
       id="path258" />
    <path
       inkscape:connector-curvature="0"
       style="fill:#b89457;fill-opacity:1;fill-rule:nonzero;stroke:none;stroke-width:0.35277778"
       d="m -87.20678,219.30937 c -0.0055,0.40652 -0.17501,0.86816 -0.398251,1.10518 -0.173634,0.18604 -0.507118,0.37345 -0.8723,0.38999 -0.657323,0.0275 -1.11621,-0.54433 -1.273305,-1.39044 -0.03306,-0.18742 -0.0565,-0.44098 -0.0565,-0.70418 0,-0.27009 0.0193,-0.54433 0.0689,-0.77032 0.165365,-0.7469 0.518142,-1.33532 1.285709,-1.33532 0.210841,0 0.507118,0.0331 0.79513,0.31281 0.425813,0.38999 0.445106,0.90675 0.450617,1.1107 h -0.58153 c -0.01517,-0.22462 -0.152964,-0.79099 -0.745518,-0.73036 -0.275608,0.0262 -0.490583,0.29628 -0.588423,0.63665 -0.03996,0.14332 -0.0813,0.4079 -0.09371,0.69316 -0.0069,0.28525 0.01242,0.59393 0.09371,0.8406 0.09784,0.29214 0.231511,0.46716 0.381716,0.56086 0.07717,0.0441 0.154341,0.0662 0.23978,0.0662 0.07993,0.005 0.169496,-0.011 0.254935,-0.0441 0.421679,-0.15847 0.434082,-0.56637 0.45751,-0.74138 z m 0,0"
       id="path260" />
    <path
       inkscape:connector-curvature="0"
       style="fill:#b89457;fill-opacity:1;fill-rule:nonzero;stroke:none;stroke-width:0.35277778"
       d="m -86.669344,216.67042 h 0.607716 v 1.5062 h 1.172711 v -1.5062 h 0.609092 v 4.00734 h -0.609092 v -1.8135 h -1.172711 v 1.8135 h -0.607716 z m 0,0"
       id="path262" />
    <path
       inkscape:connector-curvature="0"
       style="fill:#b89457;fill-opacity:1;fill-rule:nonzero;stroke:none;stroke-width:0.35277778"
       d="m -81.442444,216.67042 v 0.68627 h -1.533758 v 0.91364 h 1.416625 v 0.68764 h -1.416625 v 1.03215 h 1.602659 v 0.68764 h -2.210372 v -4.00734 z m 0,0"
       id="path264" />
    <path
       inkscape:connector-curvature="0"
       style="fill:#b89457;fill-opacity:1;fill-rule:nonzero;stroke:none;stroke-width:0.35277778"
       d="m -80.761692,216.67042 h 1.642621 c 0.296277,0.0165 0.596688,0.20258 0.682128,0.63666 0.03996,0.17639 0.100598,0.46302 0.02755,0.80891 -0.07304,0.34588 -0.202569,0.47266 -0.401006,0.63252 0.100594,0.0937 0.296276,0.19154 0.32797,0.55534 0.01655,0.16399 0.0248,0.69178 0.02893,0.89573 0,0.226 0.04823,0.27561 0.113002,0.33073 v 0.14745 h -0.653193 c -0.04823,-0.12127 -0.07304,-0.24253 -0.0813,-0.37345 -0.0069,-0.19844 -0.0069,-0.51676 0,-0.80891 -0.0069,-0.26872 -0.152965,-0.40101 -0.363802,-0.40101 h -0.715204 v 1.58337 h -0.607713 z m 0.607712,1.73633 h 0.832337 c 0.141937,0 0.396875,-0.20257 0.361043,-0.59807 0,-0.28663 -0.09784,-0.45199 -0.369312,-0.45199 h -0.824068 z m 0,0"
       id="path266" />
    <path
       inkscape:connector-curvature="0"
       style="fill:#b89457;fill-opacity:1;fill-rule:nonzero;stroke:none;stroke-width:0.35277778"
       d="m -75.47416,220.30431 c -0.24667,0.34589 -0.607717,0.50023 -0.985298,0.50023 -0.377582,0 -0.738629,-0.15434 -0.986677,-0.50023 -0.275608,-0.38999 -0.438214,-0.99494 -0.438214,-1.5999 0,-0.60496 0.162606,-1.20992 0.438214,-1.5999 0.248048,-0.34727 0.609095,-0.50023 0.986677,-0.50023 0.377581,0 0.738628,0.15296 0.985298,0.50023 0.275607,0.38998 0.438213,0.99494 0.438213,1.5999 0,0.60496 -0.162606,1.20991 -0.438213,1.5999 m -0.442352,-0.4892 c 0.195682,-0.24254 0.292146,-0.67662 0.296277,-1.1107 -0.0041,-0.43408 -0.100595,-0.86817 -0.296277,-1.1107 -0.152961,-0.19293 -0.348643,-0.26872 -0.542946,-0.26872 -0.194303,0 -0.389985,0.0758 -0.544326,0.26872 -0.194303,0.24253 -0.292145,0.67662 -0.296277,1.1107 0.0041,0.43408 0.101974,0.86816 0.296277,1.1107 0.154341,0.19154 0.350023,0.26871 0.544326,0.26871 0.194303,0 0.389985,-0.0772 0.542946,-0.26871"
       id="path268" />
    <path
       inkscape:connector-curvature="0"
       style="fill:#b89457;fill-opacity:1;fill-rule:nonzero;stroke:none;stroke-width:0.35277778"
       d="m -73.900443,216.67042 1.196139,2.75332 v -2.75332 h 0.609092 v 4.00734 h -0.600823 l -1.196139,-2.79328 v 2.79328 h -0.609092 v -4.00734 z m 0,0"
       id="path270" />
    <path
       inkscape:connector-curvature="0"
       style="fill:#b89457;fill-opacity:1;fill-rule:nonzero;stroke:none;stroke-width:0.35277778"
       d="m -67.478784,219.30937 c -0.0041,0.40652 -0.175009,0.86816 -0.398254,1.10518 -0.17363,0.18604 -0.507118,0.37345 -0.872296,0.38999 -0.657324,0.0275 -1.114834,-0.54433 -1.273309,-1.39044 -0.03306,-0.18742 -0.0565,-0.44098 -0.0565,-0.70418 0,-0.27009 0.0193,-0.54433 0.0689,-0.77032 0.16674,-0.7469 0.519518,-1.33532 1.285709,-1.33532 0.210841,0 0.507118,0.0331 0.795129,0.31281 0.425814,0.38999 0.446483,0.90675 0.450617,1.1107 h -0.580153 c -0.01654,-0.22462 -0.15434,-0.79099 -0.746898,-0.73036 -0.275607,0.0262 -0.49058,0.29628 -0.588423,0.63665 -0.03996,0.14332 -0.0813,0.4079 -0.09233,0.69316 -0.0083,0.28525 0.01101,0.59393 0.09233,0.8406 0.09784,0.29214 0.231511,0.46716 0.381717,0.56086 0.07717,0.0441 0.15434,0.0662 0.239779,0.0662 0.08131,0.005 0.169499,-0.011 0.254939,-0.0441 0.421678,-0.15847 0.434082,-0.56637 0.458886,-0.74138 z m 0,0"
       id="path272" />
    <path
       inkscape:connector-curvature="0"
       style="fill:#b89457;fill-opacity:1;fill-rule:nonzero;stroke:none;stroke-width:0.35277778"
       d="m -64.645537,220.30431 c -0.246669,0.34589 -0.609092,0.50023 -0.985298,0.50023 -0.377581,0 -0.738628,-0.15434 -0.986673,-0.50023 -0.275608,-0.38999 -0.438217,-0.99494 -0.438217,-1.5999 0,-0.60496 0.162609,-1.20992 0.438217,-1.5999 0.248045,-0.34727 0.609092,-0.50023 0.986673,-0.50023 0.376206,0 0.738629,0.15296 0.985298,0.50023 0.275608,0.38998 0.438217,0.99494 0.438217,1.5999 0,0.60496 -0.162609,1.20991 -0.438217,1.5999 m -0.442352,-0.4892 c 0.195683,-0.24254 0.292146,-0.67662 0.296281,-1.1107 -0.0041,-0.43408 -0.100598,-0.86817 -0.296281,-1.1107 -0.15434,-0.19293 -0.348643,-0.26872 -0.542946,-0.26872 -0.195682,0 -0.389985,0.0758 -0.544325,0.26872 -0.194303,0.24253 -0.292143,0.67662 -0.296277,1.1107 0.0041,0.43408 0.101974,0.86816 0.296277,1.1107 0.15434,0.19154 0.348643,0.26871 0.544325,0.26871 0.194303,0 0.388606,-0.0772 0.542946,-0.26871"
       id="path274" />
    <path
       inkscape:connector-curvature="0"
       style="fill:#b89457;fill-opacity:1;fill-rule:nonzero;stroke:none;stroke-width:0.35277778"
       d="m -63.071817,216.67042 1.196136,2.75332 v -2.75332 h 0.609092 v 4.00734 h -0.600823 l -1.196139,-2.79328 v 2.79328 h -0.609092 v -4.00734 z m 0,0"
       id="path276" />
    <path
       inkscape:connector-curvature="0"
       style="fill:#b89457;fill-opacity:1;fill-rule:nonzero;stroke:none;stroke-width:0.35277778"
       d="m -59.009362,217.88999 c 0.0083,-0.32384 -0.190168,-0.62012 -0.609092,-0.63114 -0.294901,-0.006 -0.515387,0.13091 -0.53468,0.46164 -0.01655,0.27423 0.05237,0.32935 0.186037,0.40101 0.07028,0.0992 0.629761,0.21911 0.742763,0.24805 0.162606,0.0386 0.511253,0.13642 0.698666,0.39549 0.340374,0.48369 0.181899,1.43454 -0.187413,1.75838 -0.250804,0.22049 -0.596692,0.27561 -0.924666,0.28112 -0.150206,0.005 -0.507118,-0.0661 -0.726225,-0.28112 -0.263207,-0.25769 -0.39412,-0.65319 -0.413413,-1.03353 h 0.591178 c 0,0.10473 0.0248,0.27009 0.126781,0.41203 0.133671,0.18742 0.352778,0.24805 0.55535,0.23703 0.202572,-0.006 0.39412,-0.0882 0.469911,-0.18742 0.130912,-0.16398 0.158474,-0.47818 0.01242,-0.67524 -0.194306,-0.2756 -0.778594,-0.2756 -1.160311,-0.45061 -0.319704,-0.14883 -0.584288,-0.46165 -0.534677,-1.1107 0.04823,-0.63804 0.388606,-1.1107 1.1107,-1.1107 0.158471,0 0.711066,0.0165 0.999077,0.51125 0.152961,0.26872 0.194303,0.64354 0.1695,0.77446 z m 0,0"
       id="path278" />
    <path
       inkscape:connector-curvature="0"
       style="fill:#b89457;fill-opacity:1;fill-rule:nonzero;stroke:none;stroke-width:0.35277778"
       d="m -55.663483,216.67042 v 0.68627 h -0.864031 v 3.32107 h -0.609092 v -3.32107 h -0.895727 v -0.68627 z m 0,0"
       id="path280" />
    <path
       inkscape:connector-curvature="0"
       style="fill:#b89457;fill-opacity:1;fill-rule:nonzero;stroke:none;stroke-width:0.35277778"
       d="m -52.996981,220.67776 h -0.621495 l -0.202572,-0.8034 h -1.095541 l -0.206703,0.8034 h -0.635275 l 1.04455,-4.00734 h 0.7028 z m -1.72806,-1.48966 h 0.757922 l -0.392741,-1.55581 z m 0,0"
       id="path282" />
    <path
       inkscape:connector-curvature="0"
       style="fill:#b89457;fill-opacity:1;fill-rule:nonzero;stroke:none;stroke-width:0.35277778"
       d="m -51.933133,216.67042 1.197514,2.75332 v -2.75332 h 0.607713 v 4.00734 h -0.599447 l -1.197515,-2.79328 v 2.79328 h -0.607712 v -4.00734 z m 0,0"
       id="path284" />
    <path
       inkscape:connector-curvature="0"
       style="fill:#b89457;fill-opacity:1;fill-rule:nonzero;stroke:none;stroke-width:0.35277778"
       d="m -47.341512,216.67042 v 0.68627 h -0.86403 v 3.32107 h -0.609092 v -3.32107 h -0.897103 v -0.68627 z m 0,0"
       id="path286" />
    <path
       inkscape:connector-curvature="0"
       style="fill:#b89457;fill-opacity:1;fill-rule:nonzero;stroke:none;stroke-width:0.35277778"
       d="m -46.312117,220.67776 h -0.609092 v -4.00734 h 0.609092 z m 0,0"
       id="path288" />
    <path
       inkscape:connector-curvature="0"
       style="fill:#b89457;fill-opacity:1;fill-rule:nonzero;stroke:none;stroke-width:0.35277778"
       d="m -45.06086,216.67042 1.196139,2.75332 v -2.75332 h 0.609092 v 4.00734 h -0.599447 l -1.197515,-2.79328 v 2.79328 h -0.609092 v -4.00734 z m 0,0"
       id="path290" />
    <path
       inkscape:connector-curvature="0"
       style="fill:#b89457;fill-opacity:1;fill-rule:nonzero;stroke:none;stroke-width:0.35277778"
       d="m -71.453048,211.39392 -0.512628,-1.42903 2.640319,1.14101 c 0.02205,0.008 0.0441,0.0124 0.06891,0.0124 0.05236,0 0.101974,-0.0207 0.136426,-0.0565 0.03443,-0.0345 0.0565,-0.0827 0.0565,-0.13505 0,-0.0248 -0.0041,-0.0482 -0.01379,-0.0703 l -1.139638,-2.64032 1.427649,0.51401 1.427646,-0.51401 -1.139638,2.64032 c -0.0083,0.022 -0.01238,0.0455 -0.01238,0.0703 0,0.0524 0.02205,0.1006 0.0565,0.13505 0.03447,0.0358 0.08268,0.0565 0.136426,0.0565 0.02343,0 0.04685,-0.004 0.06753,-0.0124 l 2.64032,-1.14101 -0.512629,1.42903 0.512629,1.42764 -2.64032,-1.13963 c -0.02067,-0.01 -0.0441,-0.0138 -0.06753,-0.0138 -0.05374,0 -0.101974,0.0221 -0.136426,0.0565 -0.03443,0.0345 -0.0565,0.0827 -0.0565,0.13643 0,0.0234 0.0041,0.0468 0.01238,0.0689 l 1.139638,2.6417 -1.427646,-0.51401 -1.427649,0.51401 1.139638,-2.6417 c 0.0096,-0.0221 0.01379,-0.0455 0.01379,-0.0689 0,-0.0538 -0.02205,-0.10197 -0.0565,-0.13643 -0.03447,-0.0345 -0.08406,-0.0565 -0.136426,-0.0565 -0.0248,0 -0.04686,0.004 -0.06891,0.0138 l -2.640319,1.13963 z m 0,0"
       id="path292" />
    <path
       inkscape:connector-curvature="0"
       style="fill:#b89457;fill-opacity:1;fill-rule:nonzero;stroke:none;stroke-width:0.35277778"
       d="m -75.986792,224.1325 c 0,-0.61047 0.14883,-1.10794 0.748277,-1.10794 0.202568,0 0.376202,0.0331 0.600823,0.113 l -0.06477,0.23702 c -0.241159,-0.0772 -0.359667,-0.0923 -0.497473,-0.0923 -0.403765,0 -0.500228,0.38447 -0.500228,0.85025 0,0.49747 0.08957,0.88194 0.478179,0.88194 0.121268,0 0.224621,-0.0413 0.311436,-0.10473 v -0.56913 h -0.323839 v -0.25631 h 0.596692 v 0.9977 c -0.180524,0.11024 -0.356913,0.19017 -0.600823,0.19017 -0.599447,0 -0.748277,-0.51401 -0.748277,-1.13964"
       id="path294" />
    <path
       inkscape:connector-curvature="0"
       style="fill:#b89457;fill-opacity:1;fill-rule:nonzero;stroke:none;stroke-width:0.35277778"
       d="m -72.355661,223.36907 h -0.861275 v 0.66834 h 0.745521 v 0.25632 h -0.745521 v 0.74552 h 0.873678 v 0.25631 h -1.146527 v -2.18281 h 1.134124 z m 0,0"
       id="path296" />
    <path
       inkscape:connector-curvature="0"
       style="fill:#b89457;fill-opacity:1;fill-rule:nonzero;stroke:none;stroke-width:0.35277778"
       d="m -71.239451,225.30383 v -2.18281 h 0.265963 l 0.815798,1.59439 h 0.0055 v -1.59439 h 0.263208 v 2.18281 h -0.268711 l -0.815798,-1.56269 h -0.0055 v 1.56269 z m 0,0"
       id="path298" />
    <path
       inkscape:connector-curvature="0"
       style="fill:#b89457;fill-opacity:1;fill-rule:nonzero;stroke:none;stroke-width:0.35277778"
       d="m -67.609696,223.36769 h -0.859896 v 0.66835 h 0.744139 v 0.25631 h -0.744139 v 0.74414 h 0.872296 v 0.2577 h -1.145148 v -2.18282 h 1.132748 z m -0.821312,-0.77032 h 0.217731 l 0.14745,0.38585 h -0.144695 z m 0,0"
       id="path300" />
    <path
       inkscape:connector-curvature="0"
       style="fill:#b89457;fill-opacity:1;fill-rule:nonzero;stroke:none;stroke-width:0.35277778"
       d="m -65.815493,224.90833 0.449242,-1.80385 h 0.288011 l -0.577399,2.19935 h -0.337619 l -0.589802,-2.19935 h 0.304546 l 0.458887,1.80385 z m 0,0"
       id="path302" />
    <path
       inkscape:connector-curvature="0"
       style="fill:#b89457;fill-opacity:1;fill-rule:nonzero;stroke:none;stroke-width:0.35277778"
       d="m -62.927125,223.36907 h -0.861271 v 0.66834 h 0.745518 v 0.25632 h -0.745518 v 0.74552 h 0.873675 v 0.25631 h -1.145148 v -2.18281 h 1.132744 z m 0,0"
       id="path304" />
  </g>
</svg>
